solid OpenSCAD_Model
  facet normal 0.156435 -0.987688 0
    outer loop
      vertex 34.75 0 0
      vertex 36.6814 0.305898 8
      vertex 34.75 0 8
    endloop
  endfacet
  facet normal 0.156435 -0.987688 0
    outer loop
      vertex 36.6814 0.305898 8
      vertex 34.75 0 0
      vertex 36.6814 0.305898 0
    endloop
  endfacet
  facet normal 0.987688 -0.156435 0
    outer loop
      vertex 40.6941 4.31864 8
      vertex 41 6.25 0
      vertex 41 6.25 8
    endloop
  endfacet
  facet normal 0.987688 -0.156435 0
    outer loop
      vertex 41 6.25 0
      vertex 40.6941 4.31864 8
      vertex 40.6941 4.31864 0
    endloop
  endfacet
  facet normal 0.707107 -0.707107 0
    outer loop
      vertex 38.4237 1.19364 8
      vertex 39.8064 2.57634 0
      vertex 39.8064 2.57634 8
    endloop
  endfacet
  facet normal 0.707107 -0.707107 0
    outer loop
      vertex 39.8064 2.57634 0
      vertex 38.4237 1.19364 8
      vertex 38.4237 1.19364 0
    endloop
  endfacet
  facet normal 0.45399 -0.891007 0
    outer loop
      vertex 36.6814 0.305898 0
      vertex 38.4237 1.19364 8
      vertex 36.6814 0.305898 8
    endloop
  endfacet
  facet normal 0.45399 -0.891007 0
    outer loop
      vertex 38.4237 1.19364 8
      vertex 36.6814 0.305898 0
      vertex 38.4237 1.19364 0
    endloop
  endfacet
  facet normal 0.891006 -0.453991 0
    outer loop
      vertex 39.8064 2.57634 8
      vertex 40.6941 4.31864 0
      vertex 40.6941 4.31864 8
    endloop
  endfacet
  facet normal 0.891006 -0.453991 0
    outer loop
      vertex 40.6941 4.31864 0
      vertex 39.8064 2.57634 8
      vertex 39.8064 2.57634 0
    endloop
  endfacet
  facet normal 0.156433 -0.987689 0
    outer loop
      vertex 34.75 -70.1667 0
      vertex 36.6814 -69.8608 8
      vertex 34.75 -70.1667 8
    endloop
  endfacet
  facet normal 0.156433 -0.987689 0
    outer loop
      vertex 36.6814 -69.8608 8
      vertex 34.75 -70.1667 0
      vertex 36.6814 -69.8608 0
    endloop
  endfacet
  facet normal 0.987688 -0.156435 0
    outer loop
      vertex 40.6941 -65.848 8
      vertex 41 -63.9167 0
      vertex 41 -63.9167 8
    endloop
  endfacet
  facet normal 0.987688 -0.156435 0
    outer loop
      vertex 41 -63.9167 0
      vertex 40.6941 -65.848 8
      vertex 40.6941 -65.848 0
    endloop
  endfacet
  facet normal 0.707107 -0.707107 0
    outer loop
      vertex 38.4237 -68.973 8
      vertex 39.8064 -67.5903 0
      vertex 39.8064 -67.5903 8
    endloop
  endfacet
  facet normal 0.707107 -0.707107 0
    outer loop
      vertex 39.8064 -67.5903 0
      vertex 38.4237 -68.973 8
      vertex 38.4237 -68.973 0
    endloop
  endfacet
  facet normal 0.453991 -0.891006 0
    outer loop
      vertex 36.6814 -69.8608 0
      vertex 38.4237 -68.973 8
      vertex 36.6814 -69.8608 8
    endloop
  endfacet
  facet normal 0.453991 -0.891006 0
    outer loop
      vertex 38.4237 -68.973 8
      vertex 36.6814 -69.8608 0
      vertex 38.4237 -68.973 0
    endloop
  endfacet
  facet normal 0.891006 -0.453991 0
    outer loop
      vertex 39.8064 -67.5903 8
      vertex 40.6941 -65.848 0
      vertex 40.6941 -65.848 8
    endloop
  endfacet
  facet normal 0.891006 -0.453991 0
    outer loop
      vertex 40.6941 -65.848 0
      vertex 39.8064 -67.5903 8
      vertex 39.8064 -67.5903 0
    endloop
  endfacet
  facet normal 0.987688 0.156435 0
    outer loop
      vertex 41 -43.75 8
      vertex 40.6941 -41.8186 0
      vertex 40.6941 -41.8186 8
    endloop
  endfacet
  facet normal 0.987688 0.156435 0
    outer loop
      vertex 40.6941 -41.8186 0
      vertex 41 -43.75 8
      vertex 41 -43.75 0
    endloop
  endfacet
  facet normal 0.156435 0.987688 -0
    outer loop
      vertex 36.6814 -37.8059 0
      vertex 34.75 -37.5 8
      vertex 36.6814 -37.8059 8
    endloop
  endfacet
  facet normal 0.156435 0.987688 0
    outer loop
      vertex 34.75 -37.5 8
      vertex 36.6814 -37.8059 0
      vertex 34.75 -37.5 0
    endloop
  endfacet
  facet normal 0.707107 0.707107 0
    outer loop
      vertex 39.8064 -40.0763 8
      vertex 38.4237 -38.6936 0
      vertex 38.4237 -38.6936 8
    endloop
  endfacet
  facet normal 0.707107 0.707107 0
    outer loop
      vertex 38.4237 -38.6936 0
      vertex 39.8064 -40.0763 8
      vertex 39.8064 -40.0763 0
    endloop
  endfacet
  facet normal 0.891006 0.453991 0
    outer loop
      vertex 40.6941 -41.8186 8
      vertex 39.8064 -40.0763 0
      vertex 39.8064 -40.0763 8
    endloop
  endfacet
  facet normal 0.891006 0.453991 0
    outer loop
      vertex 39.8064 -40.0763 0
      vertex 40.6941 -41.8186 8
      vertex 40.6941 -41.8186 0
    endloop
  endfacet
  facet normal 0.453991 0.891006 -0
    outer loop
      vertex 38.4237 -38.6936 0
      vertex 36.6814 -37.8059 8
      vertex 38.4237 -38.6936 8
    endloop
  endfacet
  facet normal 0.453991 0.891006 0
    outer loop
      vertex 36.6814 -37.8059 8
      vertex 38.4237 -38.6936 0
      vertex 36.6814 -37.8059 0
    endloop
  endfacet
  facet normal 1 -0 0
    outer loop
      vertex 8 -55.9167 8
      vertex 8 -55.5 0
      vertex 8 -55.5 8
    endloop
  endfacet
  facet normal 1 0 0
    outer loop
      vertex 8 -55.5 0
      vertex 8 -55.9167 8
      vertex 8 -55.9167 0
    endloop
  endfacet
  facet normal 0.987688 0.156435 0
    outer loop
      vertex 8.3059 -57.848 8
      vertex 8 -55.9167 0
      vertex 8 -55.9167 8
    endloop
  endfacet
  facet normal 0.987688 0.156435 0
    outer loop
      vertex 8 -55.9167 0
      vertex 8.3059 -57.848 8
      vertex 8.3059 -57.848 0
    endloop
  endfacet
  facet normal 0.45399 0.891007 -0
    outer loop
      vertex 12.3186 -61.8608 0
      vertex 10.5763 -60.973 8
      vertex 12.3186 -61.8608 8
    endloop
  endfacet
  facet normal 0.45399 0.891007 0
    outer loop
      vertex 10.5763 -60.973 8
      vertex 12.3186 -61.8608 0
      vertex 10.5763 -60.973 0
    endloop
  endfacet
  facet normal 0.707107 0.707107 0
    outer loop
      vertex 10.5763 -60.973 8
      vertex 9.19364 -59.5903 0
      vertex 9.19364 -59.5903 8
    endloop
  endfacet
  facet normal 0.707107 0.707107 0
    outer loop
      vertex 9.19364 -59.5903 0
      vertex 10.5763 -60.973 8
      vertex 10.5763 -60.973 0
    endloop
  endfacet
  facet normal 0.891007 0.45399 0
    outer loop
      vertex 9.19364 -59.5903 8
      vertex 8.3059 -57.848 0
      vertex 8.3059 -57.848 8
    endloop
  endfacet
  facet normal 0.891007 0.45399 0
    outer loop
      vertex 8.3059 -57.848 0
      vertex 9.19364 -59.5903 8
      vertex 9.19364 -59.5903 0
    endloop
  endfacet
  facet normal 0.156436 0.987688 -0
    outer loop
      vertex 14.25 -62.1667 0
      vertex 12.3186 -61.8608 8
      vertex 14.25 -62.1667 8
    endloop
  endfacet
  facet normal 0.156436 0.987688 0
    outer loop
      vertex 12.3186 -61.8608 8
      vertex 14.25 -62.1667 0
      vertex 12.3186 -61.8608 0
    endloop
  endfacet
  facet normal -0.156436 0.987688 0
    outer loop
      vertex 28.6814 -61.8608 0
      vertex 26.75 -62.1667 8
      vertex 28.6814 -61.8608 8
    endloop
  endfacet
  facet normal -0.156436 0.987688 0
    outer loop
      vertex 26.75 -62.1667 8
      vertex 28.6814 -61.8608 0
      vertex 26.75 -62.1667 0
    endloop
  endfacet
  facet normal -0.891006 0.453991 0
    outer loop
      vertex 31.8064 -59.5903 0
      vertex 32.6941 -57.848 8
      vertex 32.6941 -57.848 0
    endloop
  endfacet
  facet normal -0.891006 0.453991 0
    outer loop
      vertex 32.6941 -57.848 8
      vertex 31.8064 -59.5903 0
      vertex 31.8064 -59.5903 8
    endloop
  endfacet
  facet normal -0.707107 0.707107 0
    outer loop
      vertex 30.4237 -60.973 0
      vertex 31.8064 -59.5903 8
      vertex 31.8064 -59.5903 0
    endloop
  endfacet
  facet normal -0.707107 0.707107 0
    outer loop
      vertex 31.8064 -59.5903 8
      vertex 30.4237 -60.973 0
      vertex 30.4237 -60.973 8
    endloop
  endfacet
  facet normal -0.45399 0.891007 0
    outer loop
      vertex 30.4237 -60.973 0
      vertex 28.6814 -61.8608 8
      vertex 30.4237 -60.973 8
    endloop
  endfacet
  facet normal -0.45399 0.891007 0
    outer loop
      vertex 28.6814 -61.8608 8
      vertex 30.4237 -60.973 0
      vertex 28.6814 -61.8608 0
    endloop
  endfacet
  facet normal -0.987688 0.156435 0
    outer loop
      vertex 32.6941 -57.848 0
      vertex 33 -55.9167 8
      vertex 33 -55.9167 0
    endloop
  endfacet
  facet normal -0.987688 0.156435 0
    outer loop
      vertex 33 -55.9167 8
      vertex 32.6941 -57.848 0
      vertex 32.6941 -57.848 8
    endloop
  endfacet
  facet normal 1 -0 0
    outer loop
      vertex 8 -82.1667 8
      vertex 8 -70.1667 0
      vertex 8 -70.1667 8
    endloop
  endfacet
  facet normal 1 0 0
    outer loop
      vertex 8 -70.1667 0
      vertex 8 -82.1667 8
      vertex 8 -82.1667 0
    endloop
  endfacet
  facet normal 1 -0 0
    outer loop
      vertex 8 -55.5 8
      vertex 8 -12.5 0
      vertex 8 -12.5 8
    endloop
  endfacet
  facet normal 1 0 0
    outer loop
      vertex 8 -12.5 0
      vertex 8 -55.5 8
      vertex 8 -55.5 0
    endloop
  endfacet
  facet normal -1 0 0
    outer loop
      vertex 33 -55.9167 0
      vertex 33 -45.4123 8
      vertex 33 -45.4123 0
    endloop
  endfacet
  facet normal -1 -0 0
    outer loop
      vertex 33 -45.4123 8
      vertex 33 -55.9167 0
      vertex 33 -55.9167 8
    endloop
  endfacet
  facet normal -1 0 0
    outer loop
      vertex 33 -37.5877 0
      vertex 33 -37.5 8
      vertex 33 -37.5 0
    endloop
  endfacet
  facet normal -1 -0 0
    outer loop
      vertex 33 -37.5 8
      vertex 33 -37.5877 0
      vertex 33 -37.5877 8
    endloop
  endfacet
  facet normal 0 1 -0
    outer loop
      vertex 26.75 -62.1667 0
      vertex 14.25 -62.1667 8
      vertex 26.75 -62.1667 8
    endloop
  endfacet
  facet normal 0 1 0
    outer loop
      vertex 14.25 -62.1667 8
      vertex 26.75 -62.1667 0
      vertex 14.25 -62.1667 0
    endloop
  endfacet
  facet normal -1 0 0
    outer loop
      vertex 0 -82.1667 0
      vertex 0 -12.5 8
      vertex 0 -12.5 0
    endloop
  endfacet
  facet normal -1 -0 0
    outer loop
      vertex 0 -12.5 8
      vertex 0 -82.1667 0
      vertex 0 -82.1667 8
    endloop
  endfacet
  facet normal -0 0 1
    outer loop
      vertex -2.57634 9.19364 8
      vertex 7 -8 8
      vertex -1.19364 10.5763 8
    endloop
  endfacet
  facet normal 0 0 1
    outer loop
      vertex 0.625 -8 8
      vertex -0.648155 -9.9011 8
      vertex 0 -12.5 8
    endloop
  endfacet
  facet normal 0 0 1
    outer loop
      vertex 0 -12.5 8
      vertex -0.648155 -9.9011 8
      vertex -0.375 -12.5 8
    endloop
  endfacet
  facet normal 0 0 1
    outer loop
      vertex 7 -8 8
      vertex -2.76229 -5.15269 8
      vertex 0.625 -8 8
    endloop
  endfacet
  facet normal 0 0 1
    outer loop
      vertex 0.625 -8 8
      vertex -1.45568 -7.41579 8
      vertex -0.648155 -9.9011 8
    endloop
  endfacet
  facet normal 0 0 1
    outer loop
      vertex 7 -8 8
      vertex -2.57634 9.19364 8
      vertex -2.76229 -5.15269 8
    endloop
  endfacet
  facet normal 0 0 1
    outer loop
      vertex 0.625 -8 8
      vertex -2.76229 -5.15269 8
      vertex -1.45568 -7.41579 8
    endloop
  endfacet
  facet normal 0 0 1
    outer loop
      vertex -4.51087 -3.21069 8
      vertex -2.57634 9.19364 8
      vertex -4.31864 8.3059 8
    endloop
  endfacet
  facet normal 0 0 1
    outer loop
      vertex -2.57634 9.19364 8
      vertex -4.51087 -3.21069 8
      vertex -2.76229 -5.15269 8
    endloop
  endfacet
  facet normal 0 0 1
    outer loop
      vertex -6.625 -1.67468 8
      vertex -4.31864 8.3059 8
      vertex -6.25 8 8
    endloop
  endfacet
  facet normal 0 0 1
    outer loop
      vertex -4.31864 8.3059 8
      vertex -6.625 -1.67468 8
      vertex -4.51087 -3.21069 8
    endloop
  endfacet
  facet normal 0 0 1
    outer loop
      vertex -6.25 8 8
      vertex -9.01229 -0.611794 8
      vertex -6.625 -1.67468 8
    endloop
  endfacet
  facet normal 0 0 1
    outer loop
      vertex -6.25 8 8
      vertex -11.5684 -0.0684767 8
      vertex -9.01229 -0.611794 8
    endloop
  endfacet
  facet normal 0 0 1
    outer loop
      vertex -6.25 8 8
      vertex -12.875 0 8
      vertex -11.5684 -0.0684767 8
    endloop
  endfacet
  facet normal -0 0 1
    outer loop
      vertex -18.75 8 8
      vertex -12.875 0 8
      vertex -6.25 8 8
    endloop
  endfacet
  facet normal 0 0 1
    outer loop
      vertex -26.75 0 8
      vertex -18.75 8 8
      vertex -20.6814 8.3059 8
    endloop
  endfacet
  facet normal 0 0 1
    outer loop
      vertex -26.75 0 8
      vertex -20.6814 8.3059 8
      vertex -22.4237 9.19364 8
    endloop
  endfacet
  facet normal 0 0 1
    outer loop
      vertex -18.75 8 8
      vertex -26.75 0 8
      vertex -12.875 0 8
    endloop
  endfacet
  facet normal 0 0 1
    outer loop
      vertex -23.8064 10.5763 8
      vertex -26.75 0 8
      vertex -22.4237 9.19364 8
    endloop
  endfacet
  facet normal 0 0 1
    outer loop
      vertex -24.6941 12.3186 8
      vertex -26.75 0 8
      vertex -23.8064 10.5763 8
    endloop
  endfacet
  facet normal 0 0 1
    outer loop
      vertex -25 14.25 8
      vertex -26.75 0 8
      vertex -24.6941 12.3186 8
    endloop
  endfacet
  facet normal 0 0 1
    outer loop
      vertex -25 15.25 8
      vertex -26.75 0 8
      vertex -25 14.25 8
    endloop
  endfacet
  facet normal 0 0 1
    outer loop
      vertex -33 34.75 8
      vertex -26.75 41 8
      vertex -28.6814 40.6941 8
    endloop
  endfacet
  facet normal 0 0 1
    outer loop
      vertex -25 15.25 8
      vertex -33 34.75 8
      vertex -33 7.25 8
    endloop
  endfacet
  facet normal 0 0 1
    outer loop
      vertex -33 34.75 8
      vertex -28.6814 40.6941 8
      vertex -30.4237 39.8064 8
    endloop
  endfacet
  facet normal 0 0 1
    outer loop
      vertex -25 15.25 8
      vertex -33 7.25 8
      vertex -26.75 0 8
    endloop
  endfacet
  facet normal 0 0 1
    outer loop
      vertex -33 34.75 8
      vertex -30.4237 39.8064 8
      vertex -31.8064 38.4237 8
    endloop
  endfacet
  facet normal -0 0 1
    outer loop
      vertex -33 6.25 8
      vertex -26.75 0 8
      vertex -33 7.25 8
    endloop
  endfacet
  facet normal 0 0 1
    outer loop
      vertex -33 34.75 8
      vertex -31.8064 38.4237 8
      vertex -32.6941 36.6814 8
    endloop
  endfacet
  facet normal 0 0 1
    outer loop
      vertex -26.75 0 8
      vertex -33 6.25 8
      vertex -28.6814 0.305898 8
    endloop
  endfacet
  facet normal 0 0 1
    outer loop
      vertex -28.6814 0.305898 8
      vertex -33 6.25 8
      vertex -30.4237 1.19364 8
    endloop
  endfacet
  facet normal 0 0 1
    outer loop
      vertex -30.4237 1.19364 8
      vertex -33 6.25 8
      vertex -31.8064 2.57634 8
    endloop
  endfacet
  facet normal 0 0 1
    outer loop
      vertex -31.8064 2.57634 8
      vertex -33 6.25 8
      vertex -32.6941 4.31864 8
    endloop
  endfacet
  facet normal 0 0 1
    outer loop
      vertex 31.8064 30.4237 8
      vertex 41 34.75 8
      vertex 40.6941 36.6814 8
    endloop
  endfacet
  facet normal 0 0 1
    outer loop
      vertex 41 34.75 8
      vertex 33 26.75 8
      vertex 41 6.25 8
    endloop
  endfacet
  facet normal 0 0 1
    outer loop
      vertex 31.8064 30.4237 8
      vertex 40.6941 36.6814 8
      vertex 39.8064 38.4237 8
    endloop
  endfacet
  facet normal -0 0 1
    outer loop
      vertex 33 14.25 8
      vertex 41 6.25 8
      vertex 33 26.75 8
    endloop
  endfacet
  facet normal 0 0 1
    outer loop
      vertex 31.8064 30.4237 8
      vertex 39.8064 38.4237 8
      vertex 38.4237 39.8064 8
    endloop
  endfacet
  facet normal -0 0 1
    outer loop
      vertex 32.6941 12.3186 8
      vertex 41 6.25 8
      vertex 33 14.25 8
    endloop
  endfacet
  facet normal 0 0 1
    outer loop
      vertex 30.4237 31.8064 8
      vertex 38.4237 39.8064 8
      vertex 36.6814 40.6941 8
    endloop
  endfacet
  facet normal -0 0 1
    outer loop
      vertex 31.8064 10.5763 8
      vertex 41 6.25 8
      vertex 32.6941 12.3186 8
    endloop
  endfacet
  facet normal 0 0 1
    outer loop
      vertex 30.4237 31.8064 8
      vertex 36.6814 40.6941 8
      vertex 34.75 41 8
    endloop
  endfacet
  facet normal 0 0 1
    outer loop
      vertex 41 6.25 8
      vertex 31.8064 10.5763 8
      vertex 40.6941 4.31864 8
    endloop
  endfacet
  facet normal 0 0 1
    outer loop
      vertex 40.6941 4.31864 8
      vertex 31.8064 10.5763 8
      vertex 39.8064 2.57634 8
    endloop
  endfacet
  facet normal 0 0 1
    outer loop
      vertex 41 34.75 8
      vertex 32.6941 28.6814 8
      vertex 33 26.75 8
    endloop
  endfacet
  facet normal 0 0 1
    outer loop
      vertex 41 34.75 8
      vertex 31.8064 30.4237 8
      vertex 32.6941 28.6814 8
    endloop
  endfacet
  facet normal 0 0 1
    outer loop
      vertex 38.4237 39.8064 8
      vertex 30.4237 31.8064 8
      vertex 31.8064 30.4237 8
    endloop
  endfacet
  facet normal 0 0 1
    outer loop
      vertex 34.75 41 8
      vertex 28.6814 32.6941 8
      vertex 30.4237 31.8064 8
    endloop
  endfacet
  facet normal 0 0 1
    outer loop
      vertex 34.75 41 8
      vertex 26.75 33 8
      vertex 28.6814 32.6941 8
    endloop
  endfacet
  facet normal 0 0 1
    outer loop
      vertex 34.75 41 8
      vertex 14.25 33 8
      vertex 26.75 33 8
    endloop
  endfacet
  facet normal -0 0 1
    outer loop
      vertex 6.25 41 8
      vertex 14.25 33 8
      vertex 34.75 41 8
    endloop
  endfacet
  facet normal -0 0 1
    outer loop
      vertex 0 26.75 8
      vertex 8 15.25 8
      vertex 8 26.75 8
    endloop
  endfacet
  facet normal 0 0 1
    outer loop
      vertex 8 15.25 8
      vertex 0 14.25 8
      vertex 8 14.25 8
    endloop
  endfacet
  facet normal 0 0 1
    outer loop
      vertex 8 14.25 8
      vertex 7 -8 8
      vertex 8 -12.5 8
    endloop
  endfacet
  facet normal 0 0 1
    outer loop
      vertex 0 -12.5 8
      vertex 8 -12.5 8
      vertex 7 -8 8
    endloop
  endfacet
  facet normal 0 0 1
    outer loop
      vertex 8 -12.5 8
      vertex 0 -12.5 8
      vertex 8 -55.5 8
    endloop
  endfacet
  facet normal 0 0 1
    outer loop
      vertex 0 -82.1667 8
      vertex 8 -55.5 8
      vertex 0 -12.5 8
    endloop
  endfacet
  facet normal 0 0 1
    outer loop
      vertex 0 -12.5 8
      vertex 7 -8 8
      vertex 0.625 -8 8
    endloop
  endfacet
  facet normal 0 0 1
    outer loop
      vertex 14.25 33 8
      vertex 6.25 41 8
      vertex 12.3186 32.6941 8
    endloop
  endfacet
  facet normal 0 0 1
    outer loop
      vertex 6.25 41 8
      vertex 10.5763 31.8064 8
      vertex 12.3186 32.6941 8
    endloop
  endfacet
  facet normal -0 0 1
    outer loop
      vertex 4 40.5317 8
      vertex 10.5763 31.8064 8
      vertex 6.25 41 8
    endloop
  endfacet
  facet normal 0 0 1
    outer loop
      vertex 10.5763 31.8064 8
      vertex 4 40.5317 8
      vertex 9.19364 30.4237 8
    endloop
  endfacet
  facet normal 0 0 1
    outer loop
      vertex -1.19364 30.4237 8
      vertex 9.19364 30.4237 8
      vertex 4 40.5317 8
    endloop
  endfacet
  facet normal 0 0 1
    outer loop
      vertex 9.19364 30.4237 8
      vertex -1.19364 30.4237 8
      vertex 8.3059 28.6814 8
    endloop
  endfacet
  facet normal 0 0 1
    outer loop
      vertex 4 40.5317 8
      vertex 6.25 41 8
      vertex 4.31864 40.6941 8
    endloop
  endfacet
  facet normal 0 -0 1
    outer loop
      vertex -0.305898 28.6814 8
      vertex 8.3059 28.6814 8
      vertex -1.19364 30.4237 8
    endloop
  endfacet
  facet normal 0 0 1
    outer loop
      vertex 1.75 41 8
      vertex 4 40.5317 8
      vertex 3.68136 40.6941 8
    endloop
  endfacet
  facet normal 0 0 1
    outer loop
      vertex 4 40.5317 8
      vertex 1.75 41 8
      vertex -2.57634 31.8064 8
    endloop
  endfacet
  facet normal 0 0 1
    outer loop
      vertex 8 15.25 8
      vertex 0 26.75 8
      vertex 0 14.25 8
    endloop
  endfacet
  facet normal 0 0 1
    outer loop
      vertex -1.19364 10.5763 8
      vertex 8 14.25 8
      vertex -0.305898 12.3186 8
    endloop
  endfacet
  facet normal 0 0 1
    outer loop
      vertex -0.305898 12.3186 8
      vertex 8 14.25 8
      vertex 0 14.25 8
    endloop
  endfacet
  facet normal 0 0 1
    outer loop
      vertex 8 26.75 8
      vertex -0.305898 28.6814 8
      vertex 0 26.75 8
    endloop
  endfacet
  facet normal 0 0 1
    outer loop
      vertex 8.3059 28.6814 8
      vertex -0.305898 28.6814 8
      vertex 8 26.75 8
    endloop
  endfacet
  facet normal 0 0 1
    outer loop
      vertex 4 40.5317 8
      vertex -2.57634 31.8064 8
      vertex -1.19364 30.4237 8
    endloop
  endfacet
  facet normal 0 0 1
    outer loop
      vertex 1.75 41 8
      vertex -4.31864 32.6941 8
      vertex -2.57634 31.8064 8
    endloop
  endfacet
  facet normal 0 0 1
    outer loop
      vertex 1.75 41 8
      vertex -6.25 33 8
      vertex -4.31864 32.6941 8
    endloop
  endfacet
  facet normal 0 0 1
    outer loop
      vertex 1.75 41 8
      vertex -18.75 33 8
      vertex -6.25 33 8
    endloop
  endfacet
  facet normal -0 0 1
    outer loop
      vertex -26.75 41 8
      vertex -18.75 33 8
      vertex 1.75 41 8
    endloop
  endfacet
  facet normal 0 0 1
    outer loop
      vertex -24.6941 28.6814 8
      vertex -33 34.75 8
      vertex -25 26.75 8
    endloop
  endfacet
  facet normal 0 0 1
    outer loop
      vertex -25 26.75 8
      vertex -33 34.75 8
      vertex -25 15.25 8
    endloop
  endfacet
  facet normal 0 0 1
    outer loop
      vertex -23.8064 30.4237 8
      vertex -33 34.75 8
      vertex -24.6941 28.6814 8
    endloop
  endfacet
  facet normal -0 0 1
    outer loop
      vertex -33 34.75 8
      vertex -23.8064 30.4237 8
      vertex -26.75 41 8
    endloop
  endfacet
  facet normal 0 0 1
    outer loop
      vertex -22.4237 31.8064 8
      vertex -26.75 41 8
      vertex -23.8064 30.4237 8
    endloop
  endfacet
  facet normal 0 0 1
    outer loop
      vertex -20.6814 32.6941 8
      vertex -26.75 41 8
      vertex -22.4237 31.8064 8
    endloop
  endfacet
  facet normal 0 0 1
    outer loop
      vertex -18.75 33 8
      vertex -26.75 41 8
      vertex -20.6814 32.6941 8
    endloop
  endfacet
  facet normal 0 0 1
    outer loop
      vertex 39.8064 2.57634 8
      vertex 31.8064 10.5763 8
      vertex 38.4237 1.19364 8
    endloop
  endfacet
  facet normal -0 0 1
    outer loop
      vertex 30.4237 9.19364 8
      vertex 38.4237 1.19364 8
      vertex 31.8064 10.5763 8
    endloop
  endfacet
  facet normal 0 0 1
    outer loop
      vertex 38.4237 1.19364 8
      vertex 30.4237 9.19364 8
      vertex 36.6814 0.305898 8
    endloop
  endfacet
  facet normal 0 0 1
    outer loop
      vertex 36.6814 0.305898 8
      vertex 30.4237 9.19364 8
      vertex 34.75 0 8
    endloop
  endfacet
  facet normal -0 0 1
    outer loop
      vertex 28.6814 8.3059 8
      vertex 34.75 0 8
      vertex 30.4237 9.19364 8
    endloop
  endfacet
  facet normal -0 0 1
    outer loop
      vertex 26.75 8 8
      vertex 34.75 0 8
      vertex 28.6814 8.3059 8
    endloop
  endfacet
  facet normal 0 0 1
    outer loop
      vertex 26.75 8 8
      vertex 20.5 0 8
      vertex 34.75 0 8
    endloop
  endfacet
  facet normal -0 0 1
    outer loop
      vertex 14.25 8 8
      vertex 20.5 0 8
      vertex 26.75 8 8
    endloop
  endfacet
  facet normal 0 0 1
    outer loop
      vertex 20.5 0 8
      vertex 14.25 8 8
      vertex 17.9011 -0.273155 8
    endloop
  endfacet
  facet normal 0 0 1
    outer loop
      vertex 17.9011 -0.273155 8
      vertex 14.25 8 8
      vertex 15.4158 -1.08068 8
    endloop
  endfacet
  facet normal 0 0 1
    outer loop
      vertex 12.3186 8.3059 8
      vertex 15.4158 -1.08068 8
      vertex 14.25 8 8
    endloop
  endfacet
  facet normal 0 0 1
    outer loop
      vertex 15.4158 -1.08068 8
      vertex 12.3186 8.3059 8
      vertex 13.1527 -2.38729 8
    endloop
  endfacet
  facet normal 0 0 1
    outer loop
      vertex 10.5763 9.19364 8
      vertex 13.1527 -2.38729 8
      vertex 12.3186 8.3059 8
    endloop
  endfacet
  facet normal 0 0 1
    outer loop
      vertex 13.1527 -2.38729 8
      vertex 10.5763 9.19364 8
      vertex 11.2107 -4.13587 8
    endloop
  endfacet
  facet normal 0 0 1
    outer loop
      vertex 9.19364 10.5763 8
      vertex 11.2107 -4.13587 8
      vertex 10.5763 9.19364 8
    endloop
  endfacet
  facet normal 0 0 1
    outer loop
      vertex 11.2107 -4.13587 8
      vertex 9.19364 10.5763 8
      vertex 9.67468 -6.25 8
    endloop
  endfacet
  facet normal 0 0 1
    outer loop
      vertex 9.19364 10.5763 8
      vertex 8.61179 -8.63729 8
      vertex 9.67468 -6.25 8
    endloop
  endfacet
  facet normal 0 0 1
    outer loop
      vertex 8.3059 12.3186 8
      vertex 8.61179 -8.63729 8
      vertex 9.19364 10.5763 8
    endloop
  endfacet
  facet normal 0 0 1
    outer loop
      vertex 8.3059 12.3186 8
      vertex 8.06848 -11.1934 8
      vertex 8.61179 -8.63729 8
    endloop
  endfacet
  facet normal 0 0 1
    outer loop
      vertex 8 14.25 8
      vertex 8.06848 -11.1934 8
      vertex 8.3059 12.3186 8
    endloop
  endfacet
  facet normal 0 0 1
    outer loop
      vertex 8 -12.5 8
      vertex 8.06848 -11.1934 8
      vertex 8 14.25 8
    endloop
  endfacet
  facet normal 0 0 1
    outer loop
      vertex 8.06848 -11.1934 8
      vertex 8 -12.5 8
      vertex 8.06848 -12.5 8
    endloop
  endfacet
  facet normal 0 0 1
    outer loop
      vertex 30.006 -38.8475 8
      vertex 33 -37.5877 8
      vertex 31.5816 -37.7599 8
    endloop
  endfacet
  facet normal 0 0 1
    outer loop
      vertex 29.1162 -40.5427 8
      vertex 33 -37.5877 8
      vertex 30.006 -38.8475 8
    endloop
  endfacet
  facet normal 0 0 1
    outer loop
      vertex 33 -37.5877 8
      vertex 29.1162 -40.5427 8
      vertex 33 -45.4123 8
    endloop
  endfacet
  facet normal 0 0 1
    outer loop
      vertex 33 -45.4123 8
      vertex 30.006 -44.1525 8
      vertex 31.5816 -45.2401 8
    endloop
  endfacet
  facet normal -0 0 1
    outer loop
      vertex 29.1162 -42.4573 8
      vertex 33 -45.4123 8
      vertex 29.1162 -40.5427 8
    endloop
  endfacet
  facet normal 0 0 1
    outer loop
      vertex 33 -45.4123 8
      vertex 29.1162 -42.4573 8
      vertex 30.006 -44.1525 8
    endloop
  endfacet
  facet normal 0 0 1
    outer loop
      vertex 33 -45.4123 8
      vertex 41 -43.75 8
      vertex 40.6941 -41.8186 8
    endloop
  endfacet
  facet normal 0 0 1
    outer loop
      vertex 41 -43.75 8
      vertex 33 -55.9167 8
      vertex 41 -63.9167 8
    endloop
  endfacet
  facet normal 0 0 1
    outer loop
      vertex 33 -45.4123 8
      vertex 40.6941 -41.8186 8
      vertex 39.8064 -40.0763 8
    endloop
  endfacet
  facet normal -0 0 1
    outer loop
      vertex 32.6941 -57.848 8
      vertex 41 -63.9167 8
      vertex 33 -55.9167 8
    endloop
  endfacet
  facet normal 0 0 1
    outer loop
      vertex 33 -45.4123 8
      vertex 39.8064 -40.0763 8
      vertex 38.4237 -38.6936 8
    endloop
  endfacet
  facet normal -0 0 1
    outer loop
      vertex 31.8064 -59.5903 8
      vertex 41 -63.9167 8
      vertex 32.6941 -57.848 8
    endloop
  endfacet
  facet normal 0 0 1
    outer loop
      vertex 33 -45.4123 8
      vertex 38.4237 -38.6936 8
      vertex 36.6814 -37.8059 8
    endloop
  endfacet
  facet normal 0 0 1
    outer loop
      vertex 41 -63.9167 8
      vertex 31.8064 -59.5903 8
      vertex 40.6941 -65.848 8
    endloop
  endfacet
  facet normal 0 0 1
    outer loop
      vertex 33 -45.4123 8
      vertex 36.6814 -37.8059 8
      vertex 34.75 -37.5 8
    endloop
  endfacet
  facet normal 0 0 1
    outer loop
      vertex 40.6941 -65.848 8
      vertex 31.8064 -59.5903 8
      vertex 39.8064 -67.5903 8
    endloop
  endfacet
  facet normal 0 0 1
    outer loop
      vertex 33 -37.5877 8
      vertex 34.75 -37.5 8
      vertex 33 -37.5 8
    endloop
  endfacet
  facet normal 0 0 1
    outer loop
      vertex 33 -45.4123 8
      vertex 34.75 -37.5 8
      vertex 33 -37.5877 8
    endloop
  endfacet
  facet normal 0 0 1
    outer loop
      vertex 41 -43.75 8
      vertex 33 -45.4123 8
      vertex 33 -55.9167 8
    endloop
  endfacet
  facet normal 0 0 1
    outer loop
      vertex 39.8064 -67.5903 8
      vertex 31.8064 -59.5903 8
      vertex 38.4237 -68.973 8
    endloop
  endfacet
  facet normal -0 0 1
    outer loop
      vertex 30.4237 -60.973 8
      vertex 38.4237 -68.973 8
      vertex 31.8064 -59.5903 8
    endloop
  endfacet
  facet normal 0 0 1
    outer loop
      vertex 38.4237 -68.973 8
      vertex 30.4237 -60.973 8
      vertex 36.6814 -69.8608 8
    endloop
  endfacet
  facet normal 0 0 1
    outer loop
      vertex 36.6814 -69.8608 8
      vertex 30.4237 -60.973 8
      vertex 34.75 -70.1667 8
    endloop
  endfacet
  facet normal -0 0 1
    outer loop
      vertex 28.6814 -61.8608 8
      vertex 34.75 -70.1667 8
      vertex 30.4237 -60.973 8
    endloop
  endfacet
  facet normal -0 0 1
    outer loop
      vertex 26.75 -62.1667 8
      vertex 34.75 -70.1667 8
      vertex 28.6814 -61.8608 8
    endloop
  endfacet
  facet normal 0 0 1
    outer loop
      vertex 8 -70.1667 8
      vertex 26.75 -62.1667 8
      vertex 14.25 -62.1667 8
    endloop
  endfacet
  facet normal 0 0 1
    outer loop
      vertex 8 -70.1667 8
      vertex 14.25 -62.1667 8
      vertex 12.3186 -61.8608 8
    endloop
  endfacet
  facet normal 0 0 1
    outer loop
      vertex 26.75 -62.1667 8
      vertex 8 -70.1667 8
      vertex 34.75 -70.1667 8
    endloop
  endfacet
  facet normal 0 0 1
    outer loop
      vertex 10.5763 -60.973 8
      vertex 8 -70.1667 8
      vertex 12.3186 -61.8608 8
    endloop
  endfacet
  facet normal 0 0 1
    outer loop
      vertex 9.19364 -59.5903 8
      vertex 8 -70.1667 8
      vertex 10.5763 -60.973 8
    endloop
  endfacet
  facet normal 0 0 1
    outer loop
      vertex 8.3059 -57.848 8
      vertex 8 -70.1667 8
      vertex 9.19364 -59.5903 8
    endloop
  endfacet
  facet normal 0 0 1
    outer loop
      vertex 8 -70.1667 8
      vertex 8.3059 -57.848 8
      vertex 8 -55.9167 8
    endloop
  endfacet
  facet normal 0 0 1
    outer loop
      vertex 8 -70.1667 8
      vertex 0.116232 -82.1667 8
      vertex 8 -82.1667 8
    endloop
  endfacet
  facet normal 0 0 1
    outer loop
      vertex 8 -82.1667 8
      vertex 0.116232 -82.1667 8
      vertex 7.54182 -84.0256 8
    endloop
  endfacet
  facet normal 0 0 1
    outer loop
      vertex 7.54182 -84.0256 8
      vertex 0.116232 -82.1667 8
      vertex 6.27226 -85.4586 8
    endloop
  endfacet
  facet normal 0 0 1
    outer loop
      vertex 6.27226 -85.4586 8
      vertex 0.116232 -82.1667 8
      vertex 4.48215 -86.1375 8
    endloop
  endfacet
  facet normal 0 0 1
    outer loop
      vertex 4.48215 -86.1375 8
      vertex 0.116232 -82.1667 8
      vertex 2.58158 -85.9067 8
    endloop
  endfacet
  facet normal 0 0 1
    outer loop
      vertex 8 -55.5 8
      vertex 0 -82.1667 8
      vertex 8 -55.9167 8
    endloop
  endfacet
  facet normal 0 0 1
    outer loop
      vertex 2.58158 -85.9067 8
      vertex 0.116232 -82.1667 8
      vertex 1.00596 -84.8192 8
    endloop
  endfacet
  facet normal 0 0 1
    outer loop
      vertex 1.00596 -84.8192 8
      vertex 0.116232 -82.1667 8
      vertex 0.116232 -83.1239 8
    endloop
  endfacet
  facet normal 0 0 1
    outer loop
      vertex 8 14.25 8
      vertex -1.19364 10.5763 8
      vertex 7 -8 8
    endloop
  endfacet
  facet normal 0 0 1
    outer loop
      vertex 8 -55.9167 8
      vertex 0 -82.1667 8
      vertex 8 -70.1667 8
    endloop
  endfacet
  facet normal 0 0 1
    outer loop
      vertex 8 -70.1667 8
      vertex 0 -82.1667 8
      vertex 0.116232 -82.1667 8
    endloop
  endfacet
  facet normal 0 0 1
    outer loop
      vertex -11.5684 -0.0684767 8
      vertex -12.875 0 8
      vertex -12.875 -0.0684767 8
    endloop
  endfacet
  facet normal 1 -0 0
    outer loop
      vertex 41 -63.9167 8
      vertex 41 -43.75 0
      vertex 41 -43.75 8
    endloop
  endfacet
  facet normal 1 0 0
    outer loop
      vertex 41 -43.75 0
      vertex 41 -63.9167 8
      vertex 41 -63.9167 0
    endloop
  endfacet
  facet normal 0 0 -1
    outer loop
      vertex 8.06848 -12.5 0
      vertex 8 -12.5 0
      vertex 8.06848 -11.1934 0
    endloop
  endfacet
  facet normal 0 0 -1
    outer loop
      vertex 31.8064 10.5763 0
      vertex 41 6.25 0
      vertex 40.6941 4.31864 0
    endloop
  endfacet
  facet normal 0 0 -1
    outer loop
      vertex 41 6.25 0
      vertex 33 14.25 0
      vertex 41 34.75 0
    endloop
  endfacet
  facet normal 0 0 -1
    outer loop
      vertex 31.8064 10.5763 0
      vertex 40.6941 4.31864 0
      vertex 39.8064 2.57634 0
    endloop
  endfacet
  facet normal 0 0 -1
    outer loop
      vertex 33 26.75 0
      vertex 41 34.75 0
      vertex 33 14.25 0
    endloop
  endfacet
  facet normal 0 0 -1
    outer loop
      vertex 31.8064 10.5763 0
      vertex 39.8064 2.57634 0
      vertex 38.4237 1.19364 0
    endloop
  endfacet
  facet normal 0 0 -1
    outer loop
      vertex 32.6941 28.6814 0
      vertex 41 34.75 0
      vertex 33 26.75 0
    endloop
  endfacet
  facet normal 0 0 -1
    outer loop
      vertex 30.4237 9.19364 0
      vertex 38.4237 1.19364 0
      vertex 36.6814 0.305898 0
    endloop
  endfacet
  facet normal 0 0 -1
    outer loop
      vertex 31.8064 30.4237 0
      vertex 41 34.75 0
      vertex 32.6941 28.6814 0
    endloop
  endfacet
  facet normal 0 0 -1
    outer loop
      vertex 30.4237 9.19364 0
      vertex 36.6814 0.305898 0
      vertex 34.75 0 0
    endloop
  endfacet
  facet normal -0 0 -1
    outer loop
      vertex 41 34.75 0
      vertex 31.8064 30.4237 0
      vertex 40.6941 36.6814 0
    endloop
  endfacet
  facet normal -0 0 -1
    outer loop
      vertex 40.6941 36.6814 0
      vertex 31.8064 30.4237 0
      vertex 39.8064 38.4237 0
    endloop
  endfacet
  facet normal 0 0 -1
    outer loop
      vertex 41 6.25 0
      vertex 32.6941 12.3186 0
      vertex 33 14.25 0
    endloop
  endfacet
  facet normal 0 0 -1
    outer loop
      vertex 41 6.25 0
      vertex 31.8064 10.5763 0
      vertex 32.6941 12.3186 0
    endloop
  endfacet
  facet normal 0 0 -1
    outer loop
      vertex 38.4237 1.19364 0
      vertex 30.4237 9.19364 0
      vertex 31.8064 10.5763 0
    endloop
  endfacet
  facet normal 0 0 -1
    outer loop
      vertex 34.75 0 0
      vertex 28.6814 8.3059 0
      vertex 30.4237 9.19364 0
    endloop
  endfacet
  facet normal 0 0 -1
    outer loop
      vertex 34.75 0 0
      vertex 26.75 8 0
      vertex 28.6814 8.3059 0
    endloop
  endfacet
  facet normal 0 0 -1
    outer loop
      vertex 20.5 0 0
      vertex 26.75 8 0
      vertex 34.75 0 0
    endloop
  endfacet
  facet normal 0 0 -1
    outer loop
      vertex 14.25 8 0
      vertex 20.5 0 0
      vertex 17.9011 -0.273155 0
    endloop
  endfacet
  facet normal 0 0 -1
    outer loop
      vertex 14.25 8 0
      vertex 17.9011 -0.273155 0
      vertex 15.4158 -1.08068 0
    endloop
  endfacet
  facet normal 0 0 -1
    outer loop
      vertex 20.5 0 0
      vertex 14.25 8 0
      vertex 26.75 8 0
    endloop
  endfacet
  facet normal 0 0 -1
    outer loop
      vertex 12.3186 8.3059 0
      vertex 15.4158 -1.08068 0
      vertex 13.1527 -2.38729 0
    endloop
  endfacet
  facet normal 0 0 -1
    outer loop
      vertex 15.4158 -1.08068 0
      vertex 12.3186 8.3059 0
      vertex 14.25 8 0
    endloop
  endfacet
  facet normal 0 0 -1
    outer loop
      vertex 10.5763 9.19364 0
      vertex 13.1527 -2.38729 0
      vertex 11.2107 -4.13587 0
    endloop
  endfacet
  facet normal 0 0 -1
    outer loop
      vertex 13.1527 -2.38729 0
      vertex 10.5763 9.19364 0
      vertex 12.3186 8.3059 0
    endloop
  endfacet
  facet normal 0 0 -1
    outer loop
      vertex -2.76229 -5.15269 0
      vertex 11.2107 -4.13587 0
      vertex 9.67468 -6.25 0
    endloop
  endfacet
  facet normal 0 -0 -1
    outer loop
      vertex -2.57634 9.19364 0
      vertex 11.2107 -4.13587 0
      vertex -2.76229 -5.15269 0
    endloop
  endfacet
  facet normal 0 0 -1
    outer loop
      vertex 7 -8 0
      vertex 9.67468 -6.25 0
      vertex 8.61179 -8.63729 0
    endloop
  endfacet
  facet normal 0 0 -1
    outer loop
      vertex -2.76229 -5.15269 0
      vertex 9.67468 -6.25 0
      vertex 7 -8 0
    endloop
  endfacet
  facet normal 0 0 -1
    outer loop
      vertex 7 -8 0
      vertex 8.61179 -8.63729 0
      vertex 8.06848 -11.1934 0
    endloop
  endfacet
  facet normal 0 0 -1
    outer loop
      vertex 7 -8 0
      vertex 8.06848 -11.1934 0
      vertex 8 -12.5 0
    endloop
  endfacet
  facet normal 0 0 -1
    outer loop
      vertex 11.2107 -4.13587 0
      vertex -2.57634 9.19364 0
      vertex 10.5763 9.19364 0
    endloop
  endfacet
  facet normal -0 0 -1
    outer loop
      vertex 39.8064 38.4237 0
      vertex 31.8064 30.4237 0
      vertex 38.4237 39.8064 0
    endloop
  endfacet
  facet normal 0 0 -1
    outer loop
      vertex 30.4237 31.8064 0
      vertex 38.4237 39.8064 0
      vertex 31.8064 30.4237 0
    endloop
  endfacet
  facet normal -0 0 -1
    outer loop
      vertex 38.4237 39.8064 0
      vertex 30.4237 31.8064 0
      vertex 36.6814 40.6941 0
    endloop
  endfacet
  facet normal -0 0 -1
    outer loop
      vertex 36.6814 40.6941 0
      vertex 30.4237 31.8064 0
      vertex 34.75 41 0
    endloop
  endfacet
  facet normal 0 0 -1
    outer loop
      vertex 28.6814 32.6941 0
      vertex 34.75 41 0
      vertex 30.4237 31.8064 0
    endloop
  endfacet
  facet normal 0 0 -1
    outer loop
      vertex 26.75 33 0
      vertex 34.75 41 0
      vertex 28.6814 32.6941 0
    endloop
  endfacet
  facet normal 0 0 -1
    outer loop
      vertex 14.25 33 0
      vertex 34.75 41 0
      vertex 26.75 33 0
    endloop
  endfacet
  facet normal 0 0 -1
    outer loop
      vertex 6.25 41 0
      vertex 14.25 33 0
      vertex 12.3186 32.6941 0
    endloop
  endfacet
  facet normal 0 -0 -1
    outer loop
      vertex -0.305898 12.3186 0
      vertex 8.3059 12.3186 0
      vertex -1.19364 10.5763 0
    endloop
  endfacet
  facet normal 0 0 -1
    outer loop
      vertex 8.3059 12.3186 0
      vertex -0.305898 12.3186 0
      vertex 8 14.25 0
    endloop
  endfacet
  facet normal 0 0 -1
    outer loop
      vertex 14.25 33 0
      vertex 6.25 41 0
      vertex 34.75 41 0
    endloop
  endfacet
  facet normal 0 0 -1
    outer loop
      vertex 10.5763 31.8064 0
      vertex 6.25 41 0
      vertex 12.3186 32.6941 0
    endloop
  endfacet
  facet normal 0 0 -1
    outer loop
      vertex 4 40.5317 0
      vertex 10.5763 31.8064 0
      vertex 9.19364 30.4237 0
    endloop
  endfacet
  facet normal 0 0 -1
    outer loop
      vertex -1.19364 30.4237 0
      vertex 9.19364 30.4237 0
      vertex 8.3059 28.6814 0
    endloop
  endfacet
  facet normal 0 0 -1
    outer loop
      vertex -0.305898 28.6814 0
      vertex 8.3059 28.6814 0
      vertex 8 26.75 0
    endloop
  endfacet
  facet normal 0 0 -1
    outer loop
      vertex 8 14.25 0
      vertex 0 14.25 0
      vertex 8 15.25 0
    endloop
  endfacet
  facet normal 0 0 -1
    outer loop
      vertex 8 15.25 0
      vertex 0 26.75 0
      vertex 8 26.75 0
    endloop
  endfacet
  facet normal 0 0 -1
    outer loop
      vertex -0.305898 28.6814 0
      vertex 8 26.75 0
      vertex 0 26.75 0
    endloop
  endfacet
  facet normal 0 0 -1
    outer loop
      vertex 8.3059 28.6814 0
      vertex -0.305898 28.6814 0
      vertex -1.19364 30.4237 0
    endloop
  endfacet
  facet normal 0 0 -1
    outer loop
      vertex 10.5763 31.8064 0
      vertex 4 40.5317 0
      vertex 6.25 41 0
    endloop
  endfacet
  facet normal 0 0 -1
    outer loop
      vertex -2.76229 -5.15269 0
      vertex 7 -8 0
      vertex 0.625 -8 0
    endloop
  endfacet
  facet normal -0 0 -1
    outer loop
      vertex 7 -8 0
      vertex 0 -12.5 0
      vertex 0.625 -8 0
    endloop
  endfacet
  facet normal 0 0 -1
    outer loop
      vertex 0 -12.5 0
      vertex 0.116232 -82.1667 0
      vertex 0 -82.1667 0
    endloop
  endfacet
  facet normal 0 0 -1
    outer loop
      vertex -0.648155 -9.9011 0
      vertex 0.625 -8 0
      vertex 0 -12.5 0
    endloop
  endfacet
  facet normal 0 0 -1
    outer loop
      vertex -1.45568 -7.41579 0
      vertex 0.625 -8 0
      vertex -0.648155 -9.9011 0
    endloop
  endfacet
  facet normal 0 0 -1
    outer loop
      vertex 6.25 41 0
      vertex 4 40.5317 0
      vertex 4.31864 40.6941 0
    endloop
  endfacet
  facet normal 0 0 -1
    outer loop
      vertex 9.19364 30.4237 0
      vertex -1.19364 30.4237 0
      vertex 4 40.5317 0
    endloop
  endfacet
  facet normal 0 0 -1
    outer loop
      vertex -2.57634 31.8064 0
      vertex 4 40.5317 0
      vertex -1.19364 30.4237 0
    endloop
  endfacet
  facet normal 0 -0 -1
    outer loop
      vertex 1.75 41 0
      vertex 4 40.5317 0
      vertex -2.57634 31.8064 0
    endloop
  endfacet
  facet normal 0 0 -1
    outer loop
      vertex 4 40.5317 0
      vertex 1.75 41 0
      vertex 3.68136 40.6941 0
    endloop
  endfacet
  facet normal 0 0 -1
    outer loop
      vertex -4.31864 32.6941 0
      vertex 1.75 41 0
      vertex -2.57634 31.8064 0
    endloop
  endfacet
  facet normal 0 0 -1
    outer loop
      vertex -6.25 33 0
      vertex 1.75 41 0
      vertex -4.31864 32.6941 0
    endloop
  endfacet
  facet normal 0 0 -1
    outer loop
      vertex -18.75 33 0
      vertex 1.75 41 0
      vertex -6.25 33 0
    endloop
  endfacet
  facet normal 0 0 -1
    outer loop
      vertex -26.75 41 0
      vertex -18.75 33 0
      vertex -20.6814 32.6941 0
    endloop
  endfacet
  facet normal 0 0 -1
    outer loop
      vertex -18.75 33 0
      vertex -26.75 41 0
      vertex 1.75 41 0
    endloop
  endfacet
  facet normal 0 0 -1
    outer loop
      vertex -22.4237 31.8064 0
      vertex -26.75 41 0
      vertex -20.6814 32.6941 0
    endloop
  endfacet
  facet normal 0 0 -1
    outer loop
      vertex -30.4237 39.8064 0
      vertex -22.4237 31.8064 0
      vertex -23.8064 30.4237 0
    endloop
  endfacet
  facet normal 0 0 -1
    outer loop
      vertex -33 34.75 0
      vertex -23.8064 30.4237 0
      vertex -24.6941 28.6814 0
    endloop
  endfacet
  facet normal 0 0 -1
    outer loop
      vertex -33 34.75 0
      vertex -24.6941 28.6814 0
      vertex -25 26.75 0
    endloop
  endfacet
  facet normal -0 0 -1
    outer loop
      vertex -25 15.25 0
      vertex -33 7.25 0
      vertex -25 26.75 0
    endloop
  endfacet
  facet normal 0 0 -1
    outer loop
      vertex -33 6.25 0
      vertex -26.75 0 0
      vertex -28.6814 0.305898 0
    endloop
  endfacet
  facet normal 0 0 -1
    outer loop
      vertex -33 34.75 0
      vertex -25 26.75 0
      vertex -33 7.25 0
    endloop
  endfacet
  facet normal 0 0 -1
    outer loop
      vertex -33 6.25 0
      vertex -28.6814 0.305898 0
      vertex -30.4237 1.19364 0
    endloop
  endfacet
  facet normal 0 -0 -1
    outer loop
      vertex -32.6941 36.6814 0
      vertex -23.8064 30.4237 0
      vertex -33 34.75 0
    endloop
  endfacet
  facet normal 0 0 -1
    outer loop
      vertex -33 6.25 0
      vertex -30.4237 1.19364 0
      vertex -31.8064 2.57634 0
    endloop
  endfacet
  facet normal 0 0 -1
    outer loop
      vertex -22.4237 31.8064 0
      vertex -28.6814 40.6941 0
      vertex -26.75 41 0
    endloop
  endfacet
  facet normal 0 0 -1
    outer loop
      vertex -33 6.25 0
      vertex -31.8064 2.57634 0
      vertex -32.6941 4.31864 0
    endloop
  endfacet
  facet normal 0 0 -1
    outer loop
      vertex -22.4237 31.8064 0
      vertex -30.4237 39.8064 0
      vertex -28.6814 40.6941 0
    endloop
  endfacet
  facet normal 0 0 -1
    outer loop
      vertex -26.75 0 0
      vertex -33 6.25 0
      vertex -33 7.25 0
    endloop
  endfacet
  facet normal 0 0 -1
    outer loop
      vertex -23.8064 30.4237 0
      vertex -31.8064 38.4237 0
      vertex -30.4237 39.8064 0
    endloop
  endfacet
  facet normal 0 0 -1
    outer loop
      vertex -23.8064 30.4237 0
      vertex -32.6941 36.6814 0
      vertex -31.8064 38.4237 0
    endloop
  endfacet
  facet normal 0 0 -1
    outer loop
      vertex 0 26.75 0
      vertex 8 15.25 0
      vertex 0 14.25 0
    endloop
  endfacet
  facet normal 0 0 -1
    outer loop
      vertex -0.648155 -9.9011 0
      vertex 0 -12.5 0
      vertex -0.375 -12.5 0
    endloop
  endfacet
  facet normal 0 0 -1
    outer loop
      vertex -2.76229 -5.15269 0
      vertex 0.625 -8 0
      vertex -1.45568 -7.41579 0
    endloop
  endfacet
  facet normal 0 -0 -1
    outer loop
      vertex 0 14.25 0
      vertex 8 14.25 0
      vertex -0.305898 12.3186 0
    endloop
  endfacet
  facet normal 0 0 -1
    outer loop
      vertex 10.5763 9.19364 0
      vertex -2.57634 9.19364 0
      vertex 9.19364 10.5763 0
    endloop
  endfacet
  facet normal 0 0 -1
    outer loop
      vertex 9.19364 10.5763 0
      vertex -1.19364 10.5763 0
      vertex 8.3059 12.3186 0
    endloop
  endfacet
  facet normal 0 0 -1
    outer loop
      vertex -4.51087 -3.21069 0
      vertex -2.57634 9.19364 0
      vertex -2.76229 -5.15269 0
    endloop
  endfacet
  facet normal 0 0 -1
    outer loop
      vertex -2.57634 9.19364 0
      vertex -4.51087 -3.21069 0
      vertex -4.31864 8.3059 0
    endloop
  endfacet
  facet normal 0 0 -1
    outer loop
      vertex -6.625 -1.67468 0
      vertex -4.31864 8.3059 0
      vertex -4.51087 -3.21069 0
    endloop
  endfacet
  facet normal 0 0 -1
    outer loop
      vertex -4.31864 8.3059 0
      vertex -6.625 -1.67468 0
      vertex -6.25 8 0
    endloop
  endfacet
  facet normal 0 0 -1
    outer loop
      vertex -9.01229 -0.611794 0
      vertex -6.25 8 0
      vertex -6.625 -1.67468 0
    endloop
  endfacet
  facet normal 0 0 -1
    outer loop
      vertex -11.5684 -0.0684767 0
      vertex -6.25 8 0
      vertex -9.01229 -0.611794 0
    endloop
  endfacet
  facet normal 0 0 -1
    outer loop
      vertex -12.875 0 0
      vertex -11.5684 -0.0684767 0
      vertex -12.875 -0.0684767 0
    endloop
  endfacet
  facet normal 0 0 -1
    outer loop
      vertex -11.5684 -0.0684767 0
      vertex -12.875 0 0
      vertex -6.25 8 0
    endloop
  endfacet
  facet normal 0 0 -1
    outer loop
      vertex -12.875 0 0
      vertex -18.75 8 0
      vertex -6.25 8 0
    endloop
  endfacet
  facet normal 0 0 -1
    outer loop
      vertex -26.75 0 0
      vertex -18.75 8 0
      vertex -12.875 0 0
    endloop
  endfacet
  facet normal -0 0 -1
    outer loop
      vertex -18.75 8 0
      vertex -26.75 0 0
      vertex -20.6814 8.3059 0
    endloop
  endfacet
  facet normal -0 0 -1
    outer loop
      vertex -24.6941 12.3186 0
      vertex -33 7.25 0
      vertex -25 14.25 0
    endloop
  endfacet
  facet normal -0 0 -1
    outer loop
      vertex -25 14.25 0
      vertex -33 7.25 0
      vertex -25 15.25 0
    endloop
  endfacet
  facet normal -0 0 -1
    outer loop
      vertex -23.8064 10.5763 0
      vertex -33 7.25 0
      vertex -24.6941 12.3186 0
    endloop
  endfacet
  facet normal 0 0 -1
    outer loop
      vertex -33 7.25 0
      vertex -23.8064 10.5763 0
      vertex -26.75 0 0
    endloop
  endfacet
  facet normal -0 0 -1
    outer loop
      vertex -22.4237 9.19364 0
      vertex -26.75 0 0
      vertex -23.8064 10.5763 0
    endloop
  endfacet
  facet normal -0 0 -1
    outer loop
      vertex -20.6814 8.3059 0
      vertex -26.75 0 0
      vertex -22.4237 9.19364 0
    endloop
  endfacet
  facet normal 0 0 -1
    outer loop
      vertex 4.48215 -86.1375 0
      vertex 0.116232 -82.1667 0
      vertex 6.27226 -85.4586 0
    endloop
  endfacet
  facet normal 0 0 -1
    outer loop
      vertex 2.58158 -85.9067 0
      vertex 0.116232 -82.1667 0
      vertex 4.48215 -86.1375 0
    endloop
  endfacet
  facet normal 0 0 -1
    outer loop
      vertex 1.00596 -84.8192 0
      vertex 0.116232 -82.1667 0
      vertex 2.58158 -85.9067 0
    endloop
  endfacet
  facet normal 0 0 -1
    outer loop
      vertex 0.116232 -82.1667 0
      vertex 1.00596 -84.8192 0
      vertex 0.116232 -83.1239 0
    endloop
  endfacet
  facet normal 0 0 -1
    outer loop
      vertex 6.27226 -85.4586 0
      vertex 0.116232 -82.1667 0
      vertex 7.54182 -84.0256 0
    endloop
  endfacet
  facet normal 0 0 -1
    outer loop
      vertex 7.54182 -84.0256 0
      vertex 0 -12.5 0
      vertex 7 -8 0
    endloop
  endfacet
  facet normal 0 0 -1
    outer loop
      vertex 0 -12.5 0
      vertex 7.54182 -84.0256 0
      vertex 0.116232 -82.1667 0
    endloop
  endfacet
  facet normal 0 0 -1
    outer loop
      vertex 7.54182 -84.0256 0
      vertex 8 -70.1667 0
      vertex 8 -82.1667 0
    endloop
  endfacet
  facet normal -0 0 -1
    outer loop
      vertex 8 -70.1667 0
      vertex 7.54182 -84.0256 0
      vertex 8 -55.9167 0
    endloop
  endfacet
  facet normal -0 0 -1
    outer loop
      vertex 8 -55.9167 0
      vertex 7.54182 -84.0256 0
      vertex 8 -55.5 0
    endloop
  endfacet
  facet normal 0 0 -1
    outer loop
      vertex 7 -8 0
      vertex 8 -55.5 0
      vertex 7.54182 -84.0256 0
    endloop
  endfacet
  facet normal 0 0 -1
    outer loop
      vertex 8 -55.5 0
      vertex 7 -8 0
      vertex 8 -12.5 0
    endloop
  endfacet
  facet normal 0 -0 -1
    outer loop
      vertex -1.19364 10.5763 0
      vertex 9.19364 10.5763 0
      vertex -2.57634 9.19364 0
    endloop
  endfacet
  facet normal 0 0 -1
    outer loop
      vertex 30.006 -44.1525 0
      vertex 33 -45.4123 0
      vertex 31.5816 -45.2401 0
    endloop
  endfacet
  facet normal 0 0 -1
    outer loop
      vertex 29.1162 -42.4573 0
      vertex 33 -45.4123 0
      vertex 30.006 -44.1525 0
    endloop
  endfacet
  facet normal 0 0 -1
    outer loop
      vertex 33 -45.4123 0
      vertex 29.1162 -42.4573 0
      vertex 33 -37.5877 0
    endloop
  endfacet
  facet normal 0 0 -1
    outer loop
      vertex 33 -37.5877 0
      vertex 30.006 -38.8475 0
      vertex 31.5816 -37.7599 0
    endloop
  endfacet
  facet normal 0 0 -1
    outer loop
      vertex 29.1162 -40.5427 0
      vertex 33 -37.5877 0
      vertex 29.1162 -42.4573 0
    endloop
  endfacet
  facet normal 0 0 -1
    outer loop
      vertex 33 -37.5877 0
      vertex 29.1162 -40.5427 0
      vertex 30.006 -38.8475 0
    endloop
  endfacet
  facet normal 0 0 -1
    outer loop
      vertex 41 -63.9167 0
      vertex 32.6941 -57.848 0
      vertex 33 -55.9167 0
    endloop
  endfacet
  facet normal 0 0 -1
    outer loop
      vertex 41 -63.9167 0
      vertex 31.8064 -59.5903 0
      vertex 32.6941 -57.848 0
    endloop
  endfacet
  facet normal 0 0 -1
    outer loop
      vertex 34.75 -70.1667 0
      vertex 30.4237 -60.973 0
      vertex 31.8064 -59.5903 0
    endloop
  endfacet
  facet normal 0 0 -1
    outer loop
      vertex 34.75 -70.1667 0
      vertex 28.6814 -61.8608 0
      vertex 30.4237 -60.973 0
    endloop
  endfacet
  facet normal 0 0 -1
    outer loop
      vertex 34.75 -70.1667 0
      vertex 26.75 -62.1667 0
      vertex 28.6814 -61.8608 0
    endloop
  endfacet
  facet normal 0 0 -1
    outer loop
      vertex 8 -70.1667 0
      vertex 26.75 -62.1667 0
      vertex 34.75 -70.1667 0
    endloop
  endfacet
  facet normal -0 0 -1
    outer loop
      vertex 26.75 -62.1667 0
      vertex 8 -70.1667 0
      vertex 14.25 -62.1667 0
    endloop
  endfacet
  facet normal -0 0 -1
    outer loop
      vertex 14.25 -62.1667 0
      vertex 8 -70.1667 0
      vertex 12.3186 -61.8608 0
    endloop
  endfacet
  facet normal 0 0 -1
    outer loop
      vertex 8 -70.1667 0
      vertex 10.5763 -60.973 0
      vertex 12.3186 -61.8608 0
    endloop
  endfacet
  facet normal 0 0 -1
    outer loop
      vertex 8 -70.1667 0
      vertex 9.19364 -59.5903 0
      vertex 10.5763 -60.973 0
    endloop
  endfacet
  facet normal 0 0 -1
    outer loop
      vertex 8 -70.1667 0
      vertex 8.3059 -57.848 0
      vertex 9.19364 -59.5903 0
    endloop
  endfacet
  facet normal -0 0 -1
    outer loop
      vertex 8.3059 -57.848 0
      vertex 8 -70.1667 0
      vertex 8 -55.9167 0
    endloop
  endfacet
  facet normal 0 0 -1
    outer loop
      vertex 39.8064 -67.5903 0
      vertex 31.8064 -59.5903 0
      vertex 40.6941 -65.848 0
    endloop
  endfacet
  facet normal 0 0 -1
    outer loop
      vertex 41 -63.9167 0
      vertex 33 -55.9167 0
      vertex 41 -43.75 0
    endloop
  endfacet
  facet normal 0 0 -1
    outer loop
      vertex 38.4237 -68.973 0
      vertex 31.8064 -59.5903 0
      vertex 39.8064 -67.5903 0
    endloop
  endfacet
  facet normal 0 0 -1
    outer loop
      vertex 33 -45.4123 0
      vertex 41 -43.75 0
      vertex 33 -55.9167 0
    endloop
  endfacet
  facet normal 0 0 -1
    outer loop
      vertex 36.6814 -69.8608 0
      vertex 31.8064 -59.5903 0
      vertex 38.4237 -68.973 0
    endloop
  endfacet
  facet normal -0 0 -1
    outer loop
      vertex 41 -43.75 0
      vertex 33 -45.4123 0
      vertex 40.6941 -41.8186 0
    endloop
  endfacet
  facet normal 0 0 -1
    outer loop
      vertex 31.8064 -59.5903 0
      vertex 36.6814 -69.8608 0
      vertex 34.75 -70.1667 0
    endloop
  endfacet
  facet normal -0 0 -1
    outer loop
      vertex 40.6941 -41.8186 0
      vertex 33 -45.4123 0
      vertex 39.8064 -40.0763 0
    endloop
  endfacet
  facet normal -0 0 -1
    outer loop
      vertex 39.8064 -40.0763 0
      vertex 33 -45.4123 0
      vertex 38.4237 -38.6936 0
    endloop
  endfacet
  facet normal 0 0 -1
    outer loop
      vertex 40.6941 -65.848 0
      vertex 31.8064 -59.5903 0
      vertex 41 -63.9167 0
    endloop
  endfacet
  facet normal -0 0 -1
    outer loop
      vertex 38.4237 -38.6936 0
      vertex 33 -45.4123 0
      vertex 36.6814 -37.8059 0
    endloop
  endfacet
  facet normal -0 0 -1
    outer loop
      vertex 36.6814 -37.8059 0
      vertex 33 -45.4123 0
      vertex 34.75 -37.5 0
    endloop
  endfacet
  facet normal 0 0 -1
    outer loop
      vertex 33 -37.5877 0
      vertex 34.75 -37.5 0
      vertex 33 -45.4123 0
    endloop
  endfacet
  facet normal -0 0 -1
    outer loop
      vertex 34.75 -37.5 0
      vertex 33 -37.5877 0
      vertex 33 -37.5 0
    endloop
  endfacet
  facet normal 0 -1 0
    outer loop
      vertex 8 -70.1667 0
      vertex 34.75 -70.1667 8
      vertex 8 -70.1667 8
    endloop
  endfacet
  facet normal 0 -1 -0
    outer loop
      vertex 34.75 -70.1667 8
      vertex 8 -70.1667 0
      vertex 34.75 -70.1667 0
    endloop
  endfacet
  facet normal 0 1 -0
    outer loop
      vertex 34.75 -37.5 0
      vertex 33 -37.5 8
      vertex 34.75 -37.5 8
    endloop
  endfacet
  facet normal 0 1 0
    outer loop
      vertex 33 -37.5 8
      vertex 34.75 -37.5 0
      vertex 33 -37.5 0
    endloop
  endfacet
  facet normal 0 -1 0
    outer loop
      vertex 8 -12.5 0
      vertex 8.06848 -12.5 8
      vertex 8 -12.5 8
    endloop
  endfacet
  facet normal 0 -1 -0
    outer loop
      vertex 8.06848 -12.5 8
      vertex 8 -12.5 0
      vertex 8.06848 -12.5 0
    endloop
  endfacet
  facet normal 0.104529 -0.994522 0
    outer loop
      vertex 17.9011 -0.273155 0
      vertex 20.5 0 8
      vertex 17.9011 -0.273155 8
    endloop
  endfacet
  facet normal 0.104529 -0.994522 0
    outer loop
      vertex 20.5 0 8
      vertex 17.9011 -0.273155 0
      vertex 20.5 0 0
    endloop
  endfacet
  facet normal 1 -0 0
    outer loop
      vertex 8.06848 -12.5 8
      vertex 8.06848 -11.1934 0
      vertex 8.06848 -11.1934 8
    endloop
  endfacet
  facet normal 1 0 0
    outer loop
      vertex 8.06848 -11.1934 0
      vertex 8.06848 -12.5 8
      vertex 8.06848 -12.5 0
    endloop
  endfacet
  facet normal 0.809017 -0.587786 0
    outer loop
      vertex 9.67468 -6.25 8
      vertex 11.2107 -4.13587 0
      vertex 11.2107 -4.13587 8
    endloop
  endfacet
  facet normal 0.809017 -0.587786 0
    outer loop
      vertex 11.2107 -4.13587 0
      vertex 9.67468 -6.25 8
      vertex 9.67468 -6.25 0
    endloop
  endfacet
  facet normal 0.5 -0.866025 0
    outer loop
      vertex 13.1527 -2.38729 0
      vertex 15.4158 -1.08068 8
      vertex 13.1527 -2.38729 8
    endloop
  endfacet
  facet normal 0.5 -0.866025 0
    outer loop
      vertex 15.4158 -1.08068 8
      vertex 13.1527 -2.38729 0
      vertex 15.4158 -1.08068 0
    endloop
  endfacet
  facet normal 0.309017 -0.951057 0
    outer loop
      vertex 15.4158 -1.08068 0
      vertex 17.9011 -0.273155 8
      vertex 15.4158 -1.08068 8
    endloop
  endfacet
  facet normal 0.309017 -0.951057 0
    outer loop
      vertex 17.9011 -0.273155 8
      vertex 15.4158 -1.08068 0
      vertex 17.9011 -0.273155 0
    endloop
  endfacet
  facet normal 0.669131 -0.743145 0
    outer loop
      vertex 11.2107 -4.13587 0
      vertex 13.1527 -2.38729 8
      vertex 11.2107 -4.13587 8
    endloop
  endfacet
  facet normal 0.669131 -0.743145 0
    outer loop
      vertex 13.1527 -2.38729 8
      vertex 11.2107 -4.13587 0
      vertex 13.1527 -2.38729 0
    endloop
  endfacet
  facet normal 0.978148 -0.207912 0
    outer loop
      vertex 8.06848 -11.1934 8
      vertex 8.61179 -8.63729 0
      vertex 8.61179 -8.63729 8
    endloop
  endfacet
  facet normal 0.978148 -0.207912 0
    outer loop
      vertex 8.61179 -8.63729 0
      vertex 8.06848 -11.1934 8
      vertex 8.06848 -11.1934 0
    endloop
  endfacet
  facet normal 0.913546 -0.406736 0
    outer loop
      vertex 8.61179 -8.63729 8
      vertex 9.67468 -6.25 0
      vertex 9.67468 -6.25 8
    endloop
  endfacet
  facet normal 0.913546 -0.406736 0
    outer loop
      vertex 9.67468 -6.25 0
      vertex 8.61179 -8.63729 8
      vertex 8.61179 -8.63729 0
    endloop
  endfacet
  facet normal -1 0 0
    outer loop
      vertex -12.875 -0.0684767 0
      vertex -12.875 0 8
      vertex -12.875 0 0
    endloop
  endfacet
  facet normal -1 -0 0
    outer loop
      vertex -12.875 0 8
      vertex -12.875 -0.0684767 0
      vertex -12.875 -0.0684767 8
    endloop
  endfacet
  facet normal 0 -1 0
    outer loop
      vertex -0.375 -12.5 0
      vertex 0 -12.5 8
      vertex -0.375 -12.5 8
    endloop
  endfacet
  facet normal 0 -1 -0
    outer loop
      vertex 0 -12.5 8
      vertex -0.375 -12.5 0
      vertex 0 -12.5 0
    endloop
  endfacet
  facet normal -0.994522 -0.104529 0
    outer loop
      vertex -0.375 -12.5 0
      vertex -0.648155 -9.9011 8
      vertex -0.648155 -9.9011 0
    endloop
  endfacet
  facet normal -0.994522 -0.104529 0
    outer loop
      vertex -0.648155 -9.9011 8
      vertex -0.375 -12.5 0
      vertex -0.375 -12.5 8
    endloop
  endfacet
  facet normal 0 -1 0
    outer loop
      vertex -12.875 -0.0684767 0
      vertex -11.5684 -0.0684767 8
      vertex -12.875 -0.0684767 8
    endloop
  endfacet
  facet normal 0 -1 -0
    outer loop
      vertex -11.5684 -0.0684767 8
      vertex -12.875 -0.0684767 0
      vertex -11.5684 -0.0684767 0
    endloop
  endfacet
  facet normal -0.587786 -0.809017 0
    outer loop
      vertex -6.625 -1.67468 0
      vertex -4.51087 -3.21069 8
      vertex -6.625 -1.67468 8
    endloop
  endfacet
  facet normal -0.587786 -0.809017 -0
    outer loop
      vertex -4.51087 -3.21069 8
      vertex -6.625 -1.67468 0
      vertex -4.51087 -3.21069 0
    endloop
  endfacet
  facet normal -0.866025 -0.5 0
    outer loop
      vertex -1.45568 -7.41579 0
      vertex -2.76229 -5.15269 8
      vertex -2.76229 -5.15269 0
    endloop
  endfacet
  facet normal -0.866025 -0.5 0
    outer loop
      vertex -2.76229 -5.15269 8
      vertex -1.45568 -7.41579 0
      vertex -1.45568 -7.41579 8
    endloop
  endfacet
  facet normal -0.951057 -0.309017 0
    outer loop
      vertex -0.648155 -9.9011 0
      vertex -1.45568 -7.41579 8
      vertex -1.45568 -7.41579 0
    endloop
  endfacet
  facet normal -0.951057 -0.309017 0
    outer loop
      vertex -1.45568 -7.41579 8
      vertex -0.648155 -9.9011 0
      vertex -0.648155 -9.9011 8
    endloop
  endfacet
  facet normal -0.743145 -0.669131 0
    outer loop
      vertex -2.76229 -5.15269 0
      vertex -4.51087 -3.21069 8
      vertex -4.51087 -3.21069 0
    endloop
  endfacet
  facet normal -0.743145 -0.669131 0
    outer loop
      vertex -4.51087 -3.21069 8
      vertex -2.76229 -5.15269 0
      vertex -2.76229 -5.15269 8
    endloop
  endfacet
  facet normal -0.207912 -0.978148 0
    outer loop
      vertex -11.5684 -0.0684767 0
      vertex -9.01229 -0.611794 8
      vertex -11.5684 -0.0684767 8
    endloop
  endfacet
  facet normal -0.207912 -0.978148 -0
    outer loop
      vertex -9.01229 -0.611794 8
      vertex -11.5684 -0.0684767 0
      vertex -9.01229 -0.611794 0
    endloop
  endfacet
  facet normal -0.406736 -0.913546 0
    outer loop
      vertex -9.01229 -0.611794 0
      vertex -6.625 -1.67468 8
      vertex -9.01229 -0.611794 8
    endloop
  endfacet
  facet normal -0.406736 -0.913546 -0
    outer loop
      vertex -6.625 -1.67468 8
      vertex -9.01229 -0.611794 0
      vertex -6.625 -1.67468 0
    endloop
  endfacet
  facet normal -1 0 0
    outer loop
      vertex 29.1162 -42.4573 0
      vertex 29.1162 -40.5427 8
      vertex 29.1162 -40.5427 0
    endloop
  endfacet
  facet normal -1 -0 0
    outer loop
      vertex 29.1162 -40.5427 8
      vertex 29.1162 -42.4573 0
      vertex 29.1162 -42.4573 8
    endloop
  endfacet
  facet normal -0.120536 0.992709 0
    outer loop
      vertex 33 -37.5877 0
      vertex 31.5816 -37.7599 8
      vertex 33 -37.5877 8
    endloop
  endfacet
  facet normal -0.120536 0.992709 0
    outer loop
      vertex 31.5816 -37.7599 8
      vertex 33 -37.5877 0
      vertex 31.5816 -37.7599 0
    endloop
  endfacet
  facet normal -0.120536 -0.992709 0
    outer loop
      vertex 31.5816 -45.2401 0
      vertex 33 -45.4123 8
      vertex 31.5816 -45.2401 8
    endloop
  endfacet
  facet normal -0.120536 -0.992709 -0
    outer loop
      vertex 33 -45.4123 8
      vertex 31.5816 -45.2401 0
      vertex 33 -45.4123 0
    endloop
  endfacet
  facet normal -0.885456 -0.464723 0
    outer loop
      vertex 30.006 -44.1525 0
      vertex 29.1162 -42.4573 8
      vertex 29.1162 -42.4573 0
    endloop
  endfacet
  facet normal -0.885456 -0.464723 0
    outer loop
      vertex 29.1162 -42.4573 8
      vertex 30.006 -44.1525 0
      vertex 30.006 -44.1525 8
    endloop
  endfacet
  facet normal -0.885456 0.464724 0
    outer loop
      vertex 29.1162 -40.5427 0
      vertex 30.006 -38.8475 8
      vertex 30.006 -38.8475 0
    endloop
  endfacet
  facet normal -0.885456 0.464724 0
    outer loop
      vertex 30.006 -38.8475 8
      vertex 29.1162 -40.5427 0
      vertex 29.1162 -40.5427 8
    endloop
  endfacet
  facet normal -0.568066 0.822983 0
    outer loop
      vertex 31.5816 -37.7599 0
      vertex 30.006 -38.8475 8
      vertex 31.5816 -37.7599 8
    endloop
  endfacet
  facet normal -0.568066 0.822983 0
    outer loop
      vertex 30.006 -38.8475 8
      vertex 31.5816 -37.7599 0
      vertex 30.006 -38.8475 0
    endloop
  endfacet
  facet normal -0.568064 -0.822984 0
    outer loop
      vertex 30.006 -44.1525 0
      vertex 31.5816 -45.2401 8
      vertex 30.006 -44.1525 8
    endloop
  endfacet
  facet normal -0.568064 -0.822984 -0
    outer loop
      vertex 31.5816 -45.2401 8
      vertex 30.006 -44.1525 0
      vertex 31.5816 -45.2401 0
    endloop
  endfacet
  facet normal 0 1 -0
    outer loop
      vertex 7 -8 0
      vertex 0.625 -8 8
      vertex 7 -8 8
    endloop
  endfacet
  facet normal 0 1 0
    outer loop
      vertex 0.625 -8 8
      vertex 7 -8 0
      vertex 0.625 -8 0
    endloop
  endfacet
  facet normal 0 -1 0
    outer loop
      vertex 0 -82.1667 0
      vertex 0.116232 -82.1667 8
      vertex 0 -82.1667 8
    endloop
  endfacet
  facet normal 0 -1 -0
    outer loop
      vertex 0.116232 -82.1667 8
      vertex 0 -82.1667 0
      vertex 0.116232 -82.1667 0
    endloop
  endfacet
  facet normal -1 0 0
    outer loop
      vertex 0.116232 -83.1239 0
      vertex 0.116232 -82.1667 8
      vertex 0.116232 -82.1667 0
    endloop
  endfacet
  facet normal -1 -0 0
    outer loop
      vertex 0.116232 -82.1667 8
      vertex 0.116232 -83.1239 0
      vertex 0.116232 -83.1239 8
    endloop
  endfacet
  facet normal 0.354606 -0.935016 0
    outer loop
      vertex 4.48215 -86.1375 0
      vertex 6.27226 -85.4586 8
      vertex 4.48215 -86.1375 8
    endloop
  endfacet
  facet normal 0.354606 -0.935016 0
    outer loop
      vertex 6.27226 -85.4586 8
      vertex 4.48215 -86.1375 0
      vertex 6.27226 -85.4586 0
    endloop
  endfacet
  facet normal -0.885456 -0.464723 0
    outer loop
      vertex 1.00596 -84.8192 0
      vertex 0.116232 -83.1239 8
      vertex 0.116232 -83.1239 0
    endloop
  endfacet
  facet normal -0.885456 -0.464723 0
    outer loop
      vertex 0.116232 -83.1239 8
      vertex 1.00596 -84.8192 0
      vertex 1.00596 -84.8192 8
    endloop
  endfacet
  facet normal 0.748511 -0.663122 0
    outer loop
      vertex 6.27226 -85.4586 8
      vertex 7.54182 -84.0256 0
      vertex 7.54182 -84.0256 8
    endloop
  endfacet
  facet normal 0.748511 -0.663122 0
    outer loop
      vertex 7.54182 -84.0256 0
      vertex 6.27226 -85.4586 8
      vertex 6.27226 -85.4586 0
    endloop
  endfacet
  facet normal 0.970942 -0.239316 0
    outer loop
      vertex 7.54182 -84.0256 8
      vertex 8 -82.1667 0
      vertex 8 -82.1667 8
    endloop
  endfacet
  facet normal 0.970942 -0.239316 0
    outer loop
      vertex 8 -82.1667 0
      vertex 7.54182 -84.0256 8
      vertex 7.54182 -84.0256 0
    endloop
  endfacet
  facet normal -0.120538 -0.992709 0
    outer loop
      vertex 2.58158 -85.9067 0
      vertex 4.48215 -86.1375 8
      vertex 2.58158 -85.9067 8
    endloop
  endfacet
  facet normal -0.120538 -0.992709 -0
    outer loop
      vertex 4.48215 -86.1375 8
      vertex 2.58158 -85.9067 0
      vertex 4.48215 -86.1375 0
    endloop
  endfacet
  facet normal -0.568063 -0.822985 0
    outer loop
      vertex 1.00596 -84.8192 0
      vertex 2.58158 -85.9067 8
      vertex 1.00596 -84.8192 8
    endloop
  endfacet
  facet normal -0.568063 -0.822985 -0
    outer loop
      vertex 2.58158 -85.9067 8
      vertex 1.00596 -84.8192 0
      vertex 2.58158 -85.9067 0
    endloop
  endfacet
  facet normal -0.156435 0.987688 0
    outer loop
      vertex 6.25 41 0
      vertex 4.31864 40.6941 8
      vertex 6.25 41 8
    endloop
  endfacet
  facet normal -0.156435 0.987688 0
    outer loop
      vertex 4.31864 40.6941 8
      vertex 6.25 41 0
      vertex 4.31864 40.6941 0
    endloop
  endfacet
  facet normal -0.45399 0.891007 0
    outer loop
      vertex 4.31864 40.6941 0
      vertex 4 40.5317 8
      vertex 4.31864 40.6941 8
    endloop
  endfacet
  facet normal -0.45399 0.891007 0
    outer loop
      vertex 4 40.5317 8
      vertex 4.31864 40.6941 0
      vertex 4 40.5317 0
    endloop
  endfacet
  facet normal 0.987688 0.156435 0
    outer loop
      vertex 41 34.75 8
      vertex 40.6941 36.6814 0
      vertex 40.6941 36.6814 8
    endloop
  endfacet
  facet normal 0.987688 0.156435 0
    outer loop
      vertex 40.6941 36.6814 0
      vertex 41 34.75 8
      vertex 41 34.75 0
    endloop
  endfacet
  facet normal 0.156435 0.987688 -0
    outer loop
      vertex 36.6814 40.6941 0
      vertex 34.75 41 8
      vertex 36.6814 40.6941 8
    endloop
  endfacet
  facet normal 0.156435 0.987688 0
    outer loop
      vertex 34.75 41 8
      vertex 36.6814 40.6941 0
      vertex 34.75 41 0
    endloop
  endfacet
  facet normal 0.707107 0.707107 0
    outer loop
      vertex 39.8064 38.4237 8
      vertex 38.4237 39.8064 0
      vertex 38.4237 39.8064 8
    endloop
  endfacet
  facet normal 0.707107 0.707107 0
    outer loop
      vertex 38.4237 39.8064 0
      vertex 39.8064 38.4237 8
      vertex 39.8064 38.4237 0
    endloop
  endfacet
  facet normal 0.891006 0.453991 0
    outer loop
      vertex 40.6941 36.6814 8
      vertex 39.8064 38.4237 0
      vertex 39.8064 38.4237 8
    endloop
  endfacet
  facet normal 0.891006 0.453991 0
    outer loop
      vertex 39.8064 38.4237 0
      vertex 40.6941 36.6814 8
      vertex 40.6941 36.6814 0
    endloop
  endfacet
  facet normal 0.453991 0.891006 -0
    outer loop
      vertex 38.4237 39.8064 0
      vertex 36.6814 40.6941 8
      vertex 38.4237 39.8064 8
    endloop
  endfacet
  facet normal 0.453991 0.891006 0
    outer loop
      vertex 36.6814 40.6941 8
      vertex 38.4237 39.8064 0
      vertex 36.6814 40.6941 0
    endloop
  endfacet
  facet normal 0.987688 0.156435 0
    outer loop
      vertex 8.3059 12.3186 8
      vertex 8 14.25 0
      vertex 8 14.25 8
    endloop
  endfacet
  facet normal 0.987688 0.156435 0
    outer loop
      vertex 8 14.25 0
      vertex 8.3059 12.3186 8
      vertex 8.3059 12.3186 0
    endloop
  endfacet
  facet normal 0.45399 0.891007 -0
    outer loop
      vertex 12.3186 8.3059 0
      vertex 10.5763 9.19364 8
      vertex 12.3186 8.3059 8
    endloop
  endfacet
  facet normal 0.45399 0.891007 0
    outer loop
      vertex 10.5763 9.19364 8
      vertex 12.3186 8.3059 0
      vertex 10.5763 9.19364 0
    endloop
  endfacet
  facet normal 0.707107 0.707107 0
    outer loop
      vertex 10.5763 9.19364 8
      vertex 9.19364 10.5763 0
      vertex 9.19364 10.5763 8
    endloop
  endfacet
  facet normal 0.707107 0.707107 0
    outer loop
      vertex 9.19364 10.5763 0
      vertex 10.5763 9.19364 8
      vertex 10.5763 9.19364 0
    endloop
  endfacet
  facet normal 0.891007 0.45399 0
    outer loop
      vertex 9.19364 10.5763 8
      vertex 8.3059 12.3186 0
      vertex 8.3059 12.3186 8
    endloop
  endfacet
  facet normal 0.891007 0.45399 0
    outer loop
      vertex 8.3059 12.3186 0
      vertex 9.19364 10.5763 8
      vertex 9.19364 10.5763 0
    endloop
  endfacet
  facet normal 0.156435 0.987688 -0
    outer loop
      vertex 14.25 8 0
      vertex 12.3186 8.3059 8
      vertex 14.25 8 8
    endloop
  endfacet
  facet normal 0.156435 0.987688 0
    outer loop
      vertex 12.3186 8.3059 8
      vertex 14.25 8 0
      vertex 12.3186 8.3059 0
    endloop
  endfacet
  facet normal 1 -0 0
    outer loop
      vertex 8 14.25 8
      vertex 8 15.25 0
      vertex 8 15.25 8
    endloop
  endfacet
  facet normal 1 0 0
    outer loop
      vertex 8 15.25 0
      vertex 8 14.25 8
      vertex 8 14.25 0
    endloop
  endfacet
  facet normal -0.156435 0.987688 0
    outer loop
      vertex 28.6814 8.3059 0
      vertex 26.75 8 8
      vertex 28.6814 8.3059 8
    endloop
  endfacet
  facet normal -0.156435 0.987688 0
    outer loop
      vertex 26.75 8 8
      vertex 28.6814 8.3059 0
      vertex 26.75 8 0
    endloop
  endfacet
  facet normal -0.891006 0.453991 0
    outer loop
      vertex 31.8064 10.5763 0
      vertex 32.6941 12.3186 8
      vertex 32.6941 12.3186 0
    endloop
  endfacet
  facet normal -0.891006 0.453991 0
    outer loop
      vertex 32.6941 12.3186 8
      vertex 31.8064 10.5763 0
      vertex 31.8064 10.5763 8
    endloop
  endfacet
  facet normal -0.707107 0.707107 0
    outer loop
      vertex 30.4237 9.19364 0
      vertex 31.8064 10.5763 8
      vertex 31.8064 10.5763 0
    endloop
  endfacet
  facet normal -0.707107 0.707107 0
    outer loop
      vertex 31.8064 10.5763 8
      vertex 30.4237 9.19364 0
      vertex 30.4237 9.19364 8
    endloop
  endfacet
  facet normal -0.45399 0.891007 0
    outer loop
      vertex 30.4237 9.19364 0
      vertex 28.6814 8.3059 8
      vertex 30.4237 9.19364 8
    endloop
  endfacet
  facet normal -0.45399 0.891007 0
    outer loop
      vertex 28.6814 8.3059 8
      vertex 30.4237 9.19364 0
      vertex 28.6814 8.3059 0
    endloop
  endfacet
  facet normal -0.987688 0.156435 0
    outer loop
      vertex 32.6941 12.3186 0
      vertex 33 14.25 8
      vertex 33 14.25 0
    endloop
  endfacet
  facet normal -0.987688 0.156435 0
    outer loop
      vertex 33 14.25 8
      vertex 32.6941 12.3186 0
      vertex 32.6941 12.3186 8
    endloop
  endfacet
  facet normal 0.156435 -0.987688 0
    outer loop
      vertex 12.3186 32.6941 0
      vertex 14.25 33 8
      vertex 12.3186 32.6941 8
    endloop
  endfacet
  facet normal 0.156435 -0.987688 0
    outer loop
      vertex 14.25 33 8
      vertex 12.3186 32.6941 0
      vertex 14.25 33 0
    endloop
  endfacet
  facet normal 0.891007 -0.45399 0
    outer loop
      vertex 8.3059 28.6814 8
      vertex 9.19364 30.4237 0
      vertex 9.19364 30.4237 8
    endloop
  endfacet
  facet normal 0.891007 -0.45399 0
    outer loop
      vertex 9.19364 30.4237 0
      vertex 8.3059 28.6814 8
      vertex 8.3059 28.6814 0
    endloop
  endfacet
  facet normal 0.707107 -0.707107 0
    outer loop
      vertex 9.19364 30.4237 8
      vertex 10.5763 31.8064 0
      vertex 10.5763 31.8064 8
    endloop
  endfacet
  facet normal 0.707107 -0.707107 0
    outer loop
      vertex 10.5763 31.8064 0
      vertex 9.19364 30.4237 8
      vertex 9.19364 30.4237 0
    endloop
  endfacet
  facet normal 0.453991 -0.891006 0
    outer loop
      vertex 10.5763 31.8064 0
      vertex 12.3186 32.6941 8
      vertex 10.5763 31.8064 8
    endloop
  endfacet
  facet normal 0.453991 -0.891006 0
    outer loop
      vertex 12.3186 32.6941 8
      vertex 10.5763 31.8064 0
      vertex 12.3186 32.6941 0
    endloop
  endfacet
  facet normal 0.987688 -0.156435 0
    outer loop
      vertex 8 26.75 8
      vertex 8.3059 28.6814 0
      vertex 8.3059 28.6814 8
    endloop
  endfacet
  facet normal 0.987688 -0.156435 0
    outer loop
      vertex 8.3059 28.6814 0
      vertex 8 26.75 8
      vertex 8 26.75 0
    endloop
  endfacet
  facet normal -0.987688 -0.156435 0
    outer loop
      vertex 33 26.75 0
      vertex 32.6941 28.6814 8
      vertex 32.6941 28.6814 0
    endloop
  endfacet
  facet normal -0.987688 -0.156435 0
    outer loop
      vertex 32.6941 28.6814 8
      vertex 33 26.75 0
      vertex 33 26.75 8
    endloop
  endfacet
  facet normal -0.453991 -0.891006 0
    outer loop
      vertex 28.6814 32.6941 0
      vertex 30.4237 31.8064 8
      vertex 28.6814 32.6941 8
    endloop
  endfacet
  facet normal -0.453991 -0.891006 -0
    outer loop
      vertex 30.4237 31.8064 8
      vertex 28.6814 32.6941 0
      vertex 30.4237 31.8064 0
    endloop
  endfacet
  facet normal -0.707107 -0.707107 0
    outer loop
      vertex 31.8064 30.4237 0
      vertex 30.4237 31.8064 8
      vertex 30.4237 31.8064 0
    endloop
  endfacet
  facet normal -0.707107 -0.707107 0
    outer loop
      vertex 30.4237 31.8064 8
      vertex 31.8064 30.4237 0
      vertex 31.8064 30.4237 8
    endloop
  endfacet
  facet normal -0.891006 -0.453991 0
    outer loop
      vertex 32.6941 28.6814 0
      vertex 31.8064 30.4237 8
      vertex 31.8064 30.4237 0
    endloop
  endfacet
  facet normal -0.891006 -0.453991 0
    outer loop
      vertex 31.8064 30.4237 8
      vertex 32.6941 28.6814 0
      vertex 32.6941 28.6814 8
    endloop
  endfacet
  facet normal -0.156435 -0.987688 0
    outer loop
      vertex 26.75 33 0
      vertex 28.6814 32.6941 8
      vertex 26.75 33 8
    endloop
  endfacet
  facet normal -0.156435 -0.987688 -0
    outer loop
      vertex 28.6814 32.6941 8
      vertex 26.75 33 0
      vertex 28.6814 32.6941 0
    endloop
  endfacet
  facet normal 1 -0 0
    outer loop
      vertex 8 15.25 8
      vertex 8 26.75 0
      vertex 8 26.75 8
    endloop
  endfacet
  facet normal 1 0 0
    outer loop
      vertex 8 26.75 0
      vertex 8 15.25 8
      vertex 8 15.25 0
    endloop
  endfacet
  facet normal -1 0 0
    outer loop
      vertex 33 14.25 0
      vertex 33 26.75 8
      vertex 33 26.75 0
    endloop
  endfacet
  facet normal -1 -0 0
    outer loop
      vertex 33 26.75 8
      vertex 33 14.25 0
      vertex 33 14.25 8
    endloop
  endfacet
  facet normal 0 -1 0
    outer loop
      vertex 14.25 33 0
      vertex 26.75 33 8
      vertex 14.25 33 8
    endloop
  endfacet
  facet normal 0 -1 -0
    outer loop
      vertex 26.75 33 8
      vertex 14.25 33 0
      vertex 26.75 33 0
    endloop
  endfacet
  facet normal 0 1 -0
    outer loop
      vertex 26.75 8 0
      vertex 14.25 8 8
      vertex 26.75 8 8
    endloop
  endfacet
  facet normal 0 1 0
    outer loop
      vertex 14.25 8 8
      vertex 26.75 8 0
      vertex 14.25 8 0
    endloop
  endfacet
  facet normal -1 0 0
    outer loop
      vertex 0 14.25 0
      vertex 0 26.75 8
      vertex 0 26.75 0
    endloop
  endfacet
  facet normal -1 -0 0
    outer loop
      vertex 0 26.75 8
      vertex 0 14.25 0
      vertex 0 14.25 8
    endloop
  endfacet
  facet normal 1 -0 0
    outer loop
      vertex 41 6.25 8
      vertex 41 34.75 0
      vertex 41 34.75 8
    endloop
  endfacet
  facet normal 1 0 0
    outer loop
      vertex 41 34.75 0
      vertex 41 6.25 8
      vertex 41 6.25 0
    endloop
  endfacet
  facet normal 0 1 -0
    outer loop
      vertex 34.75 41 0
      vertex 6.25 41 8
      vertex 34.75 41 8
    endloop
  endfacet
  facet normal 0 1 0
    outer loop
      vertex 6.25 41 8
      vertex 34.75 41 0
      vertex 6.25 41 0
    endloop
  endfacet
  facet normal 0 -1 0
    outer loop
      vertex 20.5 0 0
      vertex 34.75 0 8
      vertex 20.5 0 8
    endloop
  endfacet
  facet normal 0 -1 -0
    outer loop
      vertex 34.75 0 8
      vertex 20.5 0 0
      vertex 34.75 0 0
    endloop
  endfacet
  facet normal -0.987688 -0.156435 0
    outer loop
      vertex -32.6941 4.31864 0
      vertex -33 6.25 8
      vertex -33 6.25 0
    endloop
  endfacet
  facet normal -0.987688 -0.156435 0
    outer loop
      vertex -33 6.25 8
      vertex -32.6941 4.31864 0
      vertex -32.6941 4.31864 8
    endloop
  endfacet
  facet normal -0.156435 -0.987688 0
    outer loop
      vertex -28.6814 0.305898 0
      vertex -26.75 0 8
      vertex -28.6814 0.305898 8
    endloop
  endfacet
  facet normal -0.156435 -0.987688 -0
    outer loop
      vertex -26.75 0 8
      vertex -28.6814 0.305898 0
      vertex -26.75 0 0
    endloop
  endfacet
  facet normal -0.707107 -0.707107 0
    outer loop
      vertex -30.4237 1.19364 0
      vertex -31.8064 2.57634 8
      vertex -31.8064 2.57634 0
    endloop
  endfacet
  facet normal -0.707107 -0.707107 0
    outer loop
      vertex -31.8064 2.57634 8
      vertex -30.4237 1.19364 0
      vertex -30.4237 1.19364 8
    endloop
  endfacet
  facet normal -0.891006 -0.453991 0
    outer loop
      vertex -31.8064 2.57634 0
      vertex -32.6941 4.31864 8
      vertex -32.6941 4.31864 0
    endloop
  endfacet
  facet normal -0.891006 -0.453991 0
    outer loop
      vertex -32.6941 4.31864 8
      vertex -31.8064 2.57634 0
      vertex -31.8064 2.57634 8
    endloop
  endfacet
  facet normal -0.45399 -0.891007 0
    outer loop
      vertex -30.4237 1.19364 0
      vertex -28.6814 0.305898 8
      vertex -30.4237 1.19364 8
    endloop
  endfacet
  facet normal -0.45399 -0.891007 -0
    outer loop
      vertex -28.6814 0.305898 8
      vertex -30.4237 1.19364 0
      vertex -28.6814 0.305898 0
    endloop
  endfacet
  facet normal -1 0 0
    outer loop
      vertex -33 6.25 0
      vertex -33 7.25 8
      vertex -33 7.25 0
    endloop
  endfacet
  facet normal -1 -0 0
    outer loop
      vertex -33 7.25 8
      vertex -33 6.25 0
      vertex -33 6.25 8
    endloop
  endfacet
  facet normal -0.156435 0.987688 0
    outer loop
      vertex -26.75 41 0
      vertex -28.6814 40.6941 8
      vertex -26.75 41 8
    endloop
  endfacet
  facet normal -0.156435 0.987688 0
    outer loop
      vertex -28.6814 40.6941 8
      vertex -26.75 41 0
      vertex -28.6814 40.6941 0
    endloop
  endfacet
  facet normal -0.987688 0.156435 0
    outer loop
      vertex -33 34.75 0
      vertex -32.6941 36.6814 8
      vertex -32.6941 36.6814 0
    endloop
  endfacet
  facet normal -0.987688 0.156435 0
    outer loop
      vertex -32.6941 36.6814 8
      vertex -33 34.75 0
      vertex -33 34.75 8
    endloop
  endfacet
  facet normal -0.707107 0.707107 0
    outer loop
      vertex -31.8064 38.4237 0
      vertex -30.4237 39.8064 8
      vertex -30.4237 39.8064 0
    endloop
  endfacet
  facet normal -0.707107 0.707107 0
    outer loop
      vertex -30.4237 39.8064 8
      vertex -31.8064 38.4237 0
      vertex -31.8064 38.4237 8
    endloop
  endfacet
  facet normal -0.453991 0.891006 0
    outer loop
      vertex -28.6814 40.6941 0
      vertex -30.4237 39.8064 8
      vertex -28.6814 40.6941 8
    endloop
  endfacet
  facet normal -0.453991 0.891006 0
    outer loop
      vertex -30.4237 39.8064 8
      vertex -28.6814 40.6941 0
      vertex -30.4237 39.8064 0
    endloop
  endfacet
  facet normal -0.891006 0.453991 0
    outer loop
      vertex -32.6941 36.6814 0
      vertex -31.8064 38.4237 8
      vertex -31.8064 38.4237 0
    endloop
  endfacet
  facet normal -0.891006 0.453991 0
    outer loop
      vertex -31.8064 38.4237 8
      vertex -32.6941 36.6814 0
      vertex -32.6941 36.6814 8
    endloop
  endfacet
  facet normal 0.156435 0.987688 -0
    outer loop
      vertex 3.68136 40.6941 0
      vertex 1.75 41 8
      vertex 3.68136 40.6941 8
    endloop
  endfacet
  facet normal 0.156435 0.987688 0
    outer loop
      vertex 1.75 41 8
      vertex 3.68136 40.6941 0
      vertex 1.75 41 0
    endloop
  endfacet
  facet normal 0.45399 0.891007 -0
    outer loop
      vertex 4 40.5317 0
      vertex 3.68136 40.6941 8
      vertex 4 40.5317 8
    endloop
  endfacet
  facet normal 0.45399 0.891007 0
    outer loop
      vertex 3.68136 40.6941 8
      vertex 4 40.5317 0
      vertex 3.68136 40.6941 0
    endloop
  endfacet
  facet normal 0.987688 0.156435 0
    outer loop
      vertex -24.6941 12.3186 8
      vertex -25 14.25 0
      vertex -25 14.25 8
    endloop
  endfacet
  facet normal 0.987688 0.156435 0
    outer loop
      vertex -25 14.25 0
      vertex -24.6941 12.3186 8
      vertex -24.6941 12.3186 0
    endloop
  endfacet
  facet normal 0.45399 0.891007 -0
    outer loop
      vertex -20.6814 8.3059 0
      vertex -22.4237 9.19364 8
      vertex -20.6814 8.3059 8
    endloop
  endfacet
  facet normal 0.45399 0.891007 0
    outer loop
      vertex -22.4237 9.19364 8
      vertex -20.6814 8.3059 0
      vertex -22.4237 9.19364 0
    endloop
  endfacet
  facet normal 0.707107 0.707107 0
    outer loop
      vertex -22.4237 9.19364 8
      vertex -23.8064 10.5763 0
      vertex -23.8064 10.5763 8
    endloop
  endfacet
  facet normal 0.707107 0.707107 0
    outer loop
      vertex -23.8064 10.5763 0
      vertex -22.4237 9.19364 8
      vertex -22.4237 9.19364 0
    endloop
  endfacet
  facet normal 0.891006 0.453991 0
    outer loop
      vertex -23.8064 10.5763 8
      vertex -24.6941 12.3186 0
      vertex -24.6941 12.3186 8
    endloop
  endfacet
  facet normal 0.891006 0.453991 0
    outer loop
      vertex -24.6941 12.3186 0
      vertex -23.8064 10.5763 8
      vertex -23.8064 10.5763 0
    endloop
  endfacet
  facet normal 0.156435 0.987688 -0
    outer loop
      vertex -18.75 8 0
      vertex -20.6814 8.3059 8
      vertex -18.75 8 8
    endloop
  endfacet
  facet normal 0.156435 0.987688 0
    outer loop
      vertex -20.6814 8.3059 8
      vertex -18.75 8 0
      vertex -20.6814 8.3059 0
    endloop
  endfacet
  facet normal 1 -0 0
    outer loop
      vertex -25 14.25 8
      vertex -25 15.25 0
      vertex -25 15.25 8
    endloop
  endfacet
  facet normal 1 0 0
    outer loop
      vertex -25 15.25 0
      vertex -25 14.25 8
      vertex -25 14.25 0
    endloop
  endfacet
  facet normal -0.156435 0.987688 0
    outer loop
      vertex -4.31864 8.3059 0
      vertex -6.25 8 8
      vertex -4.31864 8.3059 8
    endloop
  endfacet
  facet normal -0.156435 0.987688 0
    outer loop
      vertex -6.25 8 8
      vertex -4.31864 8.3059 0
      vertex -6.25 8 0
    endloop
  endfacet
  facet normal -0.891007 0.45399 0
    outer loop
      vertex -1.19364 10.5763 0
      vertex -0.305898 12.3186 8
      vertex -0.305898 12.3186 0
    endloop
  endfacet
  facet normal -0.891007 0.45399 0
    outer loop
      vertex -0.305898 12.3186 8
      vertex -1.19364 10.5763 0
      vertex -1.19364 10.5763 8
    endloop
  endfacet
  facet normal -0.707107 0.707107 0
    outer loop
      vertex -2.57634 9.19364 0
      vertex -1.19364 10.5763 8
      vertex -1.19364 10.5763 0
    endloop
  endfacet
  facet normal -0.707107 0.707107 0
    outer loop
      vertex -1.19364 10.5763 8
      vertex -2.57634 9.19364 0
      vertex -2.57634 9.19364 8
    endloop
  endfacet
  facet normal -0.45399 0.891007 0
    outer loop
      vertex -2.57634 9.19364 0
      vertex -4.31864 8.3059 8
      vertex -2.57634 9.19364 8
    endloop
  endfacet
  facet normal -0.45399 0.891007 0
    outer loop
      vertex -4.31864 8.3059 8
      vertex -2.57634 9.19364 0
      vertex -4.31864 8.3059 0
    endloop
  endfacet
  facet normal -0.987688 0.156435 0
    outer loop
      vertex -0.305898 12.3186 0
      vertex 0 14.25 8
      vertex 0 14.25 0
    endloop
  endfacet
  facet normal -0.987688 0.156435 0
    outer loop
      vertex 0 14.25 8
      vertex -0.305898 12.3186 0
      vertex -0.305898 12.3186 8
    endloop
  endfacet
  facet normal 0.156435 -0.987688 0
    outer loop
      vertex -20.6814 32.6941 0
      vertex -18.75 33 8
      vertex -20.6814 32.6941 8
    endloop
  endfacet
  facet normal 0.156435 -0.987688 0
    outer loop
      vertex -18.75 33 8
      vertex -20.6814 32.6941 0
      vertex -18.75 33 0
    endloop
  endfacet
  facet normal 0.891007 -0.45399 0
    outer loop
      vertex -24.6941 28.6814 8
      vertex -23.8064 30.4237 0
      vertex -23.8064 30.4237 8
    endloop
  endfacet
  facet normal 0.891007 -0.45399 0
    outer loop
      vertex -23.8064 30.4237 0
      vertex -24.6941 28.6814 8
      vertex -24.6941 28.6814 0
    endloop
  endfacet
  facet normal 0.707107 -0.707107 0
    outer loop
      vertex -23.8064 30.4237 8
      vertex -22.4237 31.8064 0
      vertex -22.4237 31.8064 8
    endloop
  endfacet
  facet normal 0.707107 -0.707107 0
    outer loop
      vertex -22.4237 31.8064 0
      vertex -23.8064 30.4237 8
      vertex -23.8064 30.4237 0
    endloop
  endfacet
  facet normal 0.453991 -0.891006 0
    outer loop
      vertex -22.4237 31.8064 0
      vertex -20.6814 32.6941 8
      vertex -22.4237 31.8064 8
    endloop
  endfacet
  facet normal 0.453991 -0.891006 0
    outer loop
      vertex -20.6814 32.6941 8
      vertex -22.4237 31.8064 0
      vertex -20.6814 32.6941 0
    endloop
  endfacet
  facet normal 0.987688 -0.156436 0
    outer loop
      vertex -25 26.75 8
      vertex -24.6941 28.6814 0
      vertex -24.6941 28.6814 8
    endloop
  endfacet
  facet normal 0.987688 -0.156436 0
    outer loop
      vertex -24.6941 28.6814 0
      vertex -25 26.75 8
      vertex -25 26.75 0
    endloop
  endfacet
  facet normal -0.987688 -0.156435 0
    outer loop
      vertex 0 26.75 0
      vertex -0.305898 28.6814 8
      vertex -0.305898 28.6814 0
    endloop
  endfacet
  facet normal -0.987688 -0.156435 0
    outer loop
      vertex -0.305898 28.6814 8
      vertex 0 26.75 0
      vertex 0 26.75 8
    endloop
  endfacet
  facet normal -0.453991 -0.891006 0
    outer loop
      vertex -4.31864 32.6941 0
      vertex -2.57634 31.8064 8
      vertex -4.31864 32.6941 8
    endloop
  endfacet
  facet normal -0.453991 -0.891006 -0
    outer loop
      vertex -2.57634 31.8064 8
      vertex -4.31864 32.6941 0
      vertex -2.57634 31.8064 0
    endloop
  endfacet
  facet normal -0.707107 -0.707107 0
    outer loop
      vertex -1.19364 30.4237 0
      vertex -2.57634 31.8064 8
      vertex -2.57634 31.8064 0
    endloop
  endfacet
  facet normal -0.707107 -0.707107 0
    outer loop
      vertex -2.57634 31.8064 8
      vertex -1.19364 30.4237 0
      vertex -1.19364 30.4237 8
    endloop
  endfacet
  facet normal -0.891007 -0.45399 0
    outer loop
      vertex -0.305898 28.6814 0
      vertex -1.19364 30.4237 8
      vertex -1.19364 30.4237 0
    endloop
  endfacet
  facet normal -0.891007 -0.45399 0
    outer loop
      vertex -1.19364 30.4237 8
      vertex -0.305898 28.6814 0
      vertex -0.305898 28.6814 8
    endloop
  endfacet
  facet normal -0.156435 -0.987688 0
    outer loop
      vertex -6.25 33 0
      vertex -4.31864 32.6941 8
      vertex -6.25 33 8
    endloop
  endfacet
  facet normal -0.156435 -0.987688 -0
    outer loop
      vertex -4.31864 32.6941 8
      vertex -6.25 33 0
      vertex -4.31864 32.6941 0
    endloop
  endfacet
  facet normal 1 -0 0
    outer loop
      vertex -25 15.25 8
      vertex -25 26.75 0
      vertex -25 26.75 8
    endloop
  endfacet
  facet normal 1 0 0
    outer loop
      vertex -25 26.75 0
      vertex -25 15.25 8
      vertex -25 15.25 0
    endloop
  endfacet
  facet normal 0 -1 0
    outer loop
      vertex -18.75 33 0
      vertex -6.25 33 8
      vertex -18.75 33 8
    endloop
  endfacet
  facet normal 0 -1 -0
    outer loop
      vertex -6.25 33 8
      vertex -18.75 33 0
      vertex -6.25 33 0
    endloop
  endfacet
  facet normal 0 1 -0
    outer loop
      vertex -6.25 8 0
      vertex -18.75 8 8
      vertex -6.25 8 8
    endloop
  endfacet
  facet normal 0 1 0
    outer loop
      vertex -18.75 8 8
      vertex -6.25 8 0
      vertex -18.75 8 0
    endloop
  endfacet
  facet normal -1 0 0
    outer loop
      vertex -33 7.25 0
      vertex -33 34.75 8
      vertex -33 34.75 0
    endloop
  endfacet
  facet normal -1 -0 0
    outer loop
      vertex -33 34.75 8
      vertex -33 7.25 0
      vertex -33 7.25 8
    endloop
  endfacet
  facet normal 0 1 -0
    outer loop
      vertex 1.75 41 0
      vertex -26.75 41 8
      vertex 1.75 41 8
    endloop
  endfacet
  facet normal 0 1 0
    outer loop
      vertex -26.75 41 8
      vertex 1.75 41 0
      vertex -26.75 41 0
    endloop
  endfacet
  facet normal 0 -1 0
    outer loop
      vertex -26.75 0 0
      vertex -12.875 0 8
      vertex -26.75 0 8
    endloop
  endfacet
  facet normal 0 -1 -0
    outer loop
      vertex -12.875 0 8
      vertex -26.75 0 0
      vertex -12.875 0 0
    endloop
  endfacet
  facet normal 0 -1 0
    outer loop
      vertex 0.625 -8 0
      vertex 7 -8 8
      vertex 0.625 -8 8
    endloop
  endfacet
  facet normal 0 -1 -0
    outer loop
      vertex 7 -8 8
      vertex 0.625 -8 0
      vertex 7 -8 0
    endloop
  endfacet
endsolid OpenSCAD_Model
